<?xml version="1.0" encoding="UTF-8" standalone="no"?>
<!-- Created with Inkscape (http://www.inkscape.org/) -->

<svg
   xmlns:dc="http://purl.org/dc/elements/1.1/"
   xmlns:cc="http://creativecommons.org/ns#"
   xmlns:rdf="http://www.w3.org/1999/02/22-rdf-syntax-ns#"
   xmlns:svg="http://www.w3.org/2000/svg"
   xmlns="http://www.w3.org/2000/svg"
   xmlns:sodipodi="http://sodipodi.sourceforge.net/DTD/sodipodi-0.dtd"
   xmlns:inkscape="http://www.inkscape.org/namespaces/inkscape"
   width="512"
   height="512"
   viewBox="0 0 135.46666 135.46666"
   version="1.1"
   id="svg8"
   inkscape:version="0.92.4 (5da689c313, 2019-01-14)"
   sodipodi:docname="U+4EAD.svg">
  <defs
     id="defs2" />
  <sodipodi:namedview
     id="base"
     pagecolor="#ffffff"
     bordercolor="#666666"
     borderopacity="1.0"
     inkscape:pageopacity="0.0"
     inkscape:pageshadow="2"
     inkscape:zoom="1.979899"
     inkscape:cx="146.596"
     inkscape:cy="240.09617"
     inkscape:document-units="mm"
     inkscape:current-layer="layer1"
     showgrid="false"
     units="px"
     inkscape:window-width="1920"
     inkscape:window-height="1017"
     inkscape:window-x="-8"
     inkscape:window-y="-8"
     inkscape:window-maximized="1" />
  <metadata
     id="metadata5">
    <rdf:RDF>
      <cc:Work
         rdf:about="">
        <dc:format>image/svg+xml</dc:format>
        <dc:type
           rdf:resource="http://purl.org/dc/dcmitype/StillImage" />
        <dc:title></dc:title>
      </cc:Work>
    </rdf:RDF>
  </metadata>
  <g
     inkscape:label="圖層 1"
     inkscape:groupmode="layer"
     id="layer1"
     transform="translate(0,-161.53336)">
    <path
       style="fill:#000000;stroke:#000000;stroke-width:0.26458332px;stroke-linecap:butt;stroke-linejoin:miter;stroke-opacity:1;fill-opacity:1"
       d="M 51.40476,168.96059 C 50.215684,167.23415 71.815475,165.18083 71.531992,183.60717 66.901781,184.83559 65.011905,182.37875 65.011905,182.37875 65.011905,182.37875 55.158199,174.41028 51.40476,168.96059 Z"
       id="path3735"
       inkscape:connector-curvature="0"
       sodipodi:nodetypes="sccs" />
    <path
       style="fill:#000000;stroke:#000000;stroke-width:0.26458332px;stroke-linecap:butt;stroke-linejoin:miter;stroke-opacity:1;fill-opacity:1"
       d="M 24.190476,193.34006 C 24.190476,193.34006 24.379464,197.97027 33.639881,199.10419 33.639881,199.10419 79.280506,178.59898 110.65253,185.21357 110.65253,185.21357 119.0625,184.36312 111.59747,180.39437 111.59747,180.39437 105.45536,175.76416 99.313244,179.9219 99.313244,179.9219 30.616071,189.18233 24.190476,193.34006 Z"
       id="path3739"
       inkscape:connector-curvature="0" />
    <path
       style="fill:#000000;stroke:#000000;stroke-width:0.26458332px;stroke-linecap:butt;stroke-linejoin:miter;stroke-opacity:1;fill-opacity:1"
       d="M 62.744048,201.93902 C 62.744048,201.93902 63.972468,207.79764 70.870534,203.07294 70.870534,203.07294 74.366816,198.82071 74.177827,196.08038 Z"
       id="path3741"
       inkscape:connector-curvature="0" />
    <path
       style="fill:#000000;stroke:#000000;stroke-width:0.26458332px;stroke-linecap:butt;stroke-linejoin:miter;stroke-opacity:1;fill-opacity:1"
       d="M 61.610118,216.30211 68.886159,214.03425 C 68.886159,214.03425 76.729166,212.23887 70.020089,218.47547 L 61.137649,220.93232 Z"
       id="path3743"
       inkscape:connector-curvature="0" />
    <path
       style="fill:#000000;stroke:#000000;stroke-width:0.26458332px;stroke-linecap:butt;stroke-linejoin:miter;stroke-opacity:1;fill-opacity:1"
       d="M 56.412947,233.40553 C 59.05878,216.96357 56.696427,206.00226 56.696427,206.00226 55.845982,200.89958 51.593749,200.33262 51.593749,200.33262 L 50.270833,196.08038 C 50.270833,196.08038 58.869792,196.64735 61.137649,204.67934 61.137649,204.67934 63.311012,228.01937 60.948661,232.93306 Z"
       id="path3745"
       inkscape:connector-curvature="0" />
    <path
       style="fill:#000000;stroke:#000000;stroke-width:0.26458332px;stroke-linecap:butt;stroke-linejoin:miter;stroke-opacity:1;fill-opacity:1"
       d="M 73.043898,185.21357 C 73.043898,185.21357 79.469492,181.43381 77.296131,203.35643 L 75.500744,231.51565 78.90253,236.24035 80.697917,230.66521 81.453869,210.25449 C 81.453869,210.25449 79.375,200.80509 83.910714,190.41074 L 80.225447,183.60717 Z"
       id="path3747"
       inkscape:connector-curvature="0" />
    <path
       style="fill:#000000;stroke:#000000;stroke-width:0.26458332px;stroke-linecap:butt;stroke-linejoin:miter;stroke-opacity:1;fill-opacity:1"
       d="M 32.600447,236.14586 26.647322,258.91892 C 26.647322,258.91892 28.348215,278.2902 32.978423,261.18678 L 37.136161,243.13842 Z"
       id="path3749"
       inkscape:connector-curvature="0" />
    <path
       style="fill:#000000;stroke:#000000;stroke-width:0.26458332px;stroke-linecap:butt;stroke-linejoin:miter;stroke-opacity:1;fill-opacity:1"
       d="M 37.041666,236.52383 C 37.041666,236.52383 46.470446,243.47447 48.286458,239.54764 48.286458,239.54764 84.98929,229.47314 102.99851,227.16893 102.99851,227.16893 118.23498,221.50878 111.99837,233.69852 L 114.79683,240.2091 C 114.79683,240.2091 125.3841,229.16951 118.86401,226.05121 114.54021,222.61492 110.69486,222.39972 103.75446,224.4286 98.673561,225.91389 37.041666,236.52383 37.041666,236.52383 Z"
       id="path3751"
       inkscape:connector-curvature="0"
       sodipodi:nodetypes="ccccccsc" />
    <path
       style="fill:#000000;stroke:#000000;stroke-width:0.26458332px;stroke-linecap:butt;stroke-linejoin:miter;stroke-opacity:1;fill-opacity:1"
       d="M 41.854148,255.02846 C 41.854148,255.02846 51.301923,257.81071 53.09894,255.12295 53.09894,255.12295 72.287947,242.66595 100.63616,245.87875 100.63616,245.87875 107.59352,243.80266 101.86458,243.13842 101.86458,243.13842 94.494048,238.60271 84.005208,242.38247 84.005208,242.38247 70.49256,243.32741 51.499256,250.22547 Z"
       id="path3753"
       inkscape:connector-curvature="0"
       sodipodi:nodetypes="ccccccc" />
    <path
       style="fill:#000000;stroke:#000000;stroke-width:0.26458332px;stroke-linecap:butt;stroke-linejoin:miter;stroke-opacity:1;fill-opacity:1"
       d="M 67.27976,293.31476 C 91.848214,260.99779 65.767857,249.09154 65.767857,249.09154 L 67.619191,248.0897 C 67.619191,248.0897 101.16152,255.03871 72.830946,295.39641 65.881938,297.93547 67.27976,293.31476 67.27976,293.31476 Z"
       id="path3755"
       inkscape:connector-curvature="0" />
  </g>
</svg>
