<?xml version="1.0" encoding="UTF-8" standalone="no"?>
<!-- Created with Inkscape (http://www.inkscape.org/) -->

<svg
   xmlns:dc="http://purl.org/dc/elements/1.1/"
   xmlns:cc="http://creativecommons.org/ns#"
   xmlns:rdf="http://www.w3.org/1999/02/22-rdf-syntax-ns#"
   xmlns:svg="http://www.w3.org/2000/svg"
   xmlns="http://www.w3.org/2000/svg"
   xmlns:sodipodi="http://sodipodi.sourceforge.net/DTD/sodipodi-0.dtd"
   xmlns:inkscape="http://www.inkscape.org/namespaces/inkscape"
   version="1.1"
   id="svg3731"
   width="511"
   height="513"
   viewBox="0 0 511 513"
   sodipodi:docname="U+585E.svg"
   inkscape:version="0.92.4 (5da689c313, 2019-01-14)">
  <metadata
     id="metadata3737">
    <rdf:RDF>
      <cc:Work
         rdf:about="">
        <dc:format>image/svg+xml</dc:format>
        <dc:type
           rdf:resource="http://purl.org/dc/dcmitype/StillImage" />
        <dc:title></dc:title>
      </cc:Work>
    </rdf:RDF>
  </metadata>
  <defs
     id="defs3735" />
  <sodipodi:namedview
     pagecolor="#ffffff"
     bordercolor="#666666"
     borderopacity="1"
     objecttolerance="10"
     gridtolerance="10"
     guidetolerance="10"
     inkscape:pageopacity="0"
     inkscape:pageshadow="2"
     inkscape:window-width="1920"
     inkscape:window-height="1017"
     id="namedview3733"
     showgrid="false"
     inkscape:zoom="1.3011867"
     inkscape:cx="258.6066"
     inkscape:cy="317.47666"
     inkscape:window-x="-8"
     inkscape:window-y="-8"
     inkscape:window-maximized="1"
     inkscape:current-layer="svg3731" />
  <path
     style="fill:#000000;stroke:#000000;stroke-width:1px;stroke-linecap:butt;stroke-linejoin:miter;stroke-opacity:1;fill-opacity:1"
     d="M 99.448093,114.12076 C 99.448093,114.12076 129.33686,155.96504 92.926907,199.43962 92.926907,199.43962 102.16525,245.08792 119.55508,209.76483 L 135.85805,150.53072 C 135.85805,150.53072 144.55297,92.926902 99.448093,114.12076 Z"
     id="path4284"
     inkscape:connector-curvature="0" />
  <path
     style="fill:#000000;stroke:#000000;stroke-width:1px;stroke-linecap:butt;stroke-linejoin:miter;stroke-opacity:1;fill-opacity:1"
     d="M 160.3125,104.88241 C 160.3125,104.88241 173.89831,131.51059 213.56886,116.29449 213.56886,116.29449 302.14831,97.274364 348.88347,95.100635 348.88347,95.100635 409.20445,91.29661 385.83686,116.29449 385.83686,116.29449 370.07733,111.94703 385.29343,127.70657 385.29343,127.70657 405.94386,155.42161 417.35593,120.64195 417.35593,120.64195 425.50742,98.361228 433.6589,100.53496 433.6589,100.53496 448.875,90.753178 428.22458,73.906779 428.22458,73.906779 407.03072,47.822033 392.90148,66.842161 392.90148,66.842161 397.24894,72.276483 317.36441,79.884533"
     id="path4288"
     inkscape:connector-curvature="0" />
  <path
     style="fill:#000000;stroke:#000000;stroke-width:1px;stroke-linecap:butt;stroke-linejoin:miter;stroke-opacity:1;fill-opacity:1"
     d="M 317.36441,79.884533 160.3125,104.88241"
     id="path4290"
     inkscape:connector-curvature="0" />
  <path
     style="fill:#000000;stroke:#000000;stroke-width:1px;stroke-linecap:butt;stroke-linejoin:miter;stroke-opacity:1;fill-opacity:1"
     d="M 183.68008,37.496822 C 183.68008,37.496822 239.11017,65.755296 231.50212,101.62182 231.50212,101.62182 262.47775,144.55297 264.10805,109.7733 264.10805,109.7733 286.93219,16.846399 183.68008,37.496822 Z"
     id="path4292"
     inkscape:connector-curvature="0" />
  <path
     style="fill:#000000;stroke:#000000;stroke-width:1px;stroke-linecap:butt;stroke-linejoin:miter;stroke-opacity:1;fill-opacity:1"
     d="M 165.20339,201.06991 C 165.20339,201.06991 191.28814,232.04555 217.37288,216.28602 217.37288,216.28602 288.5625,176.61547 336.38453,183.13665 336.38453,183.13665 358.12182,184.22352 335.29767,165.74682 335.29767,165.74682 324.97246,157.59534 304.32203,166.83369"
     id="path4294"
     inkscape:connector-curvature="0" />
  <path
     style="fill:#000000;stroke:#000000;stroke-width:1px;stroke-linecap:butt;stroke-linejoin:miter;stroke-opacity:1;fill-opacity:1"
     d="M 166.83369,241.82733 C 166.83369,241.82733 189.11441,270.62924 206.50424,258.1303 206.50424,258.1303 296.17055,224.4375 329.86335,231.50212 329.86335,231.50212 354.86123,228.24153 331.49364,211.93856 331.49364,211.93856 322.2553,205.9608 298.34428,217.91631 298.34428,217.91631 188.57098,239.6536 166.83369,241.82733 Z"
     id="path4298"
     inkscape:connector-curvature="0" />
  <path
     style="fill:#000000;stroke:#000000;stroke-width:1px;stroke-linecap:butt;stroke-linejoin:miter;stroke-opacity:1;fill-opacity:1"
     d="M 125.53284,297.25742 C 125.53284,297.25742 145.63983,321.71186 170.63771,308.12606 170.63771,308.12606 281.49788,262.47775 353.23093,277.15042 353.23093,277.15042 415.72564,270.0858 362.46928,257.58686 362.46928,257.58686 128.79343,288.01908 125.53284,297.25742 Z"
     id="path4300"
     inkscape:connector-curvature="0" />
  <path
     style="fill:#000000;stroke:#000000;stroke-width:1px;stroke-linecap:butt;stroke-linejoin:miter;stroke-opacity:1;fill-opacity:1"
     d="M 202.15678,148.35699 C 202.15678,148.35699 229.32839,172.81144 213.56886,297.80085 213.56886,297.80085 224.41052,350.84034 42.269106,435.37855 42.269106,435.37855 80.695565,450.74914 106.82556,426.92473 106.82556,426.92473 176.76171,386.19268 215.18817,328.55299 215.18817,328.55299 230.55876,323.17329 231.32729,174.07863 239.78111,141.03188 202.15678,148.35699 202.15678,148.35699 Z"
     id="path4302"
     inkscape:connector-curvature="0" />
  <path
     style="fill:#000000;stroke:#000000;stroke-width:1px;stroke-linecap:butt;stroke-linejoin:miter;stroke-opacity:1;fill-opacity:1"
     d="M 275.90198,300.88594 C 288.96698,234.0239 265.9111,130.27246 265.9111,130.27246 265.9111,130.27246 305.10609,133.34658 291.27256,169.46745 L 285.12433,297.81183 Z"
     id="path4304"
     inkscape:connector-curvature="0" />
  <path
     style="fill:#000000;stroke:#000000;stroke-width:1px;stroke-linecap:butt;stroke-linejoin:miter;stroke-opacity:1;fill-opacity:1"
     d="M 249.00346,270.9133 C 249.00346,270.9133 371.1996,370.8221 398.86665,401.56327 398.86665,401.56327 431.14488,423.08208 488.78457,388.49827 416.54283,370.05357 249.00346,270.9133 249.00346,270.9133 Z"
     id="path4306"
     inkscape:connector-curvature="0" />
  <path
     style="fill:#000000;stroke:#000000;stroke-width:1px;stroke-linecap:butt;stroke-linejoin:miter;stroke-opacity:1;fill-opacity:1"
     d="M 295.11521,374.66475 C 242.85522,380.81298 238.24405,397.72062 238.24405,397.72062 213.65112,406.94297 191.36377,379.27592 191.36377,379.27592 191.36377,379.27592 228.25317,356.98857 282.05021,353.91446 282.05021,353.91446 335.07873,368.51652 295.11521,374.66475 Z"
     id="path4308"
     inkscape:connector-curvature="0" />
  <path
     style="fill:#000000;fill-opacity:1;stroke:#000000;stroke-width:1px;stroke-linecap:butt;stroke-linejoin:miter;stroke-opacity:1"
     d="M 150.63172,458.43443 C 150.63172,458.43443 163.69672,476.1106 186.75259,464.58266 186.75259,464.58266 219.79935,439.2212 287.42992,452.2862 287.42992,452.2862 403.47782,505.3147 341.22696,436.14708 341.22696,436.14708 157.54848,435.37856 150.63172,458.43443 Z"
     id="path4310"
     inkscape:connector-curvature="0"
     sodipodi:nodetypes="ccccc" />
  <path
     style="fill:#000000;stroke:#000000;stroke-width:1px;stroke-linecap:butt;stroke-linejoin:miter;stroke-opacity:1;fill-opacity:1"
     d="M 245.92934,443.06384 C 254.38316,396.95209 231.32729,318.56211 231.32729,318.56211 231.32729,318.56211 293.57815,307.03418 265.9111,352.3774 265.9111,352.3774 252.8461,373.12769 255.92022,437.68414 Z"
     id="path4312"
     inkscape:connector-curvature="0" />
</svg>
