<?xml version="1.0" encoding="UTF-8" standalone="no"?>
<!-- Created with Inkscape (http://www.inkscape.org/) -->

<svg
   xmlns:dc="http://purl.org/dc/elements/1.1/"
   xmlns:cc="http://creativecommons.org/ns#"
   xmlns:rdf="http://www.w3.org/1999/02/22-rdf-syntax-ns#"
   xmlns:svg="http://www.w3.org/2000/svg"
   xmlns="http://www.w3.org/2000/svg"
   xmlns:sodipodi="http://sodipodi.sourceforge.net/DTD/sodipodi-0.dtd"
   xmlns:inkscape="http://www.inkscape.org/namespaces/inkscape"
   version="1.1"
   id="svg4562"
   width="513"
   height="513"
   viewBox="0 0 513 513"
   sodipodi:docname="U+5B97.svg"
   inkscape:version="0.92.4 (5da689c313, 2019-01-14)">
  <metadata
     id="metadata4568">
    <rdf:RDF>
      <cc:Work
         rdf:about="">
        <dc:format>image/svg+xml</dc:format>
        <dc:type
           rdf:resource="http://purl.org/dc/dcmitype/StillImage" />
        <dc:title></dc:title>
      </cc:Work>
    </rdf:RDF>
  </metadata>
  <defs
     id="defs4566" />
  <sodipodi:namedview
     pagecolor="#ffffff"
     bordercolor="#666666"
     borderopacity="1"
     objecttolerance="10"
     gridtolerance="10"
     guidetolerance="10"
     inkscape:pageopacity="0"
     inkscape:pageshadow="2"
     inkscape:window-width="1920"
     inkscape:window-height="1017"
     id="namedview4564"
     showgrid="false"
     inkscape:zoom="1.8401559"
     inkscape:cx="290.95305"
     inkscape:cy="273.75656"
     inkscape:window-x="-8"
     inkscape:window-y="-8"
     inkscape:window-maximized="1"
     inkscape:current-layer="svg4562" />
  <path
     style="fill:#000000;stroke:#000000;stroke-width:1px;stroke-linecap:butt;stroke-linejoin:miter;stroke-opacity:1;fill-opacity:1"
     d="M 190.7447,69.015889 C 190.7447,69.015889 229.87182,117.38136 258.1303,134.22775 288.01907,60.320966 190.7447,69.015889 190.7447,69.015889 Z"
     id="path4572"
     inkscape:connector-curvature="0" />
  <path
     style="fill:#000000;fill-opacity:1;stroke:#000000;stroke-width:1px;stroke-linecap:butt;stroke-linejoin:miter;stroke-opacity:1"
     d="M 148.35699,126.6197 C 148.35699,126.6197 169.00742,148.35699 185.31038,133.68432 185.31038,133.68432 243.45763,103.25212 382.03284,102.16525 382.03284,102.16525 399.97613,127.49485 366.81674,139.11865 358.78049,141.9357 388.22318,160.85431 398.33581,154.87818 418.00078,143.25703 494.52331,119.01165 401.05296,86.40572 401.05296,86.40572 390.18432,87.492585 360.29555,90.753178 360.29555,90.753178 163.02966,112.49046 148.35699,126.6197 Z"
     id="path4576"
     inkscape:connector-curvature="0"
     sodipodi:nodetypes="cccsaccc" />
  <path
     style="fill:#000000;stroke:#000000;stroke-width:1px;stroke-linecap:butt;stroke-linejoin:miter;stroke-opacity:1;fill-opacity:1"
     d="M 83.688559,96.1875 C 83.688559,96.1875 112.49047,146.72669 71.733051,210.30826 71.733051,210.30826 69.559322,265.19491 90.753178,259.76059 90.753178,259.76059 126.07627,166.29025 126.6197,154.87818 126.6197,154.87818 116.29449,88.57945 83.688559,96.1875 Z"
     id="path4578"
     inkscape:connector-curvature="0" />
  <path
     style="fill:#000000;stroke:#000000;stroke-width:1px;stroke-linecap:butt;stroke-linejoin:miter;stroke-opacity:1;fill-opacity:1"
     d="M 155.42161,202.15678 C 155.42161,202.15678 180.96292,235.84958 208.67797,217.91631 208.67797,217.91631 231.50212,190.7447 302.14831,176.07203 302.14831,176.07203 286.05063,161.99473 278.78072,166.29025 238.74434,189.94627 155.42161,202.15678 155.42161,202.15678 Z"
     id="path4580"
     inkscape:connector-curvature="0"
     sodipodi:nodetypes="cccsc" />
  <path
     style="fill:#000000;stroke:#000000;stroke-width:1px;stroke-linecap:butt;stroke-linejoin:miter;stroke-opacity:1;fill-opacity:1"
     d="M 134.22775,286.9322 C 134.22775,286.9322 157.59534,311.38665 183.13665,295.62712 183.13665,295.62712 237.47987,248.34852 311.93009,260.30403 311.93009,260.30403 338.55826,258.67373 364.09958,258.67373 364.09958,258.67373 380.94597,248.34852 328.23305,234.76271 328.23305,234.76271 135.31461,271.17266 134.22775,286.9322 Z"
     id="path4582"
     inkscape:connector-curvature="0" />
  <path
     style="fill:#000000;fill-opacity:1;stroke:#000000;stroke-width:1px;stroke-linecap:butt;stroke-linejoin:miter;stroke-opacity:1"
     d="M 224.98093,265.19491 C 224.98093,265.19491 273.3464,305.4089 240.19703,395.61864 240.19703,395.61864 199.98305,370.62076 225.52436,414.63877 225.52436,414.63877 262.47775,493.97987 265.73835,426.59428 265.73835,426.59428 256.59079,349.71751 272.80297,296.71398 275.05289,289.35818 243.45763,259.21716 242.9142,258.67373 242.37076,258.1303 224.98093,265.19491 224.98093,265.19491 Z"
     id="path4584"
     inkscape:connector-curvature="0"
     sodipodi:nodetypes="ccccscc" />
  <path
     style="fill:#000000;stroke:#000000;stroke-width:1px;stroke-linecap:butt;stroke-linejoin:miter;stroke-opacity:1;fill-opacity:1"
     d="M 146.18326,335.8411 C 146.18326,335.8411 105.42585,386.92373 140.20551,407.03072 182.04979,400.50953 146.18326,335.8411 146.18326,335.8411 Z"
     id="path4586"
     inkscape:connector-curvature="0" />
  <path
     style="fill:#000000;stroke:#000000;stroke-width:1px;stroke-linecap:butt;stroke-linejoin:miter;stroke-opacity:1;fill-opacity:1"
     d="M 313.56038,291.27966 C 313.56038,291.27966 367.9036,402.13983 389.64089,396.16208 427.68114,318.45128 313.56038,291.27966 313.56038,291.27966 Z"
     id="path4588"
     inkscape:connector-curvature="0" />
</svg>
