<?xml version="1.0" encoding="UTF-8" standalone="no"?>
<!-- Created with Inkscape (http://www.inkscape.org/) -->

<svg
   xmlns:dc="http://purl.org/dc/elements/1.1/"
   xmlns:cc="http://creativecommons.org/ns#"
   xmlns:rdf="http://www.w3.org/1999/02/22-rdf-syntax-ns#"
   xmlns:svg="http://www.w3.org/2000/svg"
   xmlns="http://www.w3.org/2000/svg"
   xmlns:sodipodi="http://sodipodi.sourceforge.net/DTD/sodipodi-0.dtd"
   xmlns:inkscape="http://www.inkscape.org/namespaces/inkscape"
   version="1.1"
   id="svg5133"
   width="509"
   height="511"
   viewBox="0 0 509 511"
   sodipodi:docname="U+5CB1.svg"
   inkscape:version="0.92.4 (5da689c313, 2019-01-14)">
  <metadata
     id="metadata5139">
    <rdf:RDF>
      <cc:Work
         rdf:about="">
        <dc:format>image/svg+xml</dc:format>
        <dc:type
           rdf:resource="http://purl.org/dc/dcmitype/StillImage" />
        <dc:title></dc:title>
      </cc:Work>
    </rdf:RDF>
  </metadata>
  <defs
     id="defs5137" />
  <sodipodi:namedview
     pagecolor="#ffffff"
     bordercolor="#666666"
     borderopacity="1"
     objecttolerance="10"
     gridtolerance="10"
     guidetolerance="10"
     inkscape:pageopacity="0"
     inkscape:pageshadow="2"
     inkscape:window-width="1920"
     inkscape:window-height="1017"
     id="namedview5135"
     showgrid="false"
     inkscape:zoom="1.8473581"
     inkscape:cx="178.0142"
     inkscape:cy="329.26405"
     inkscape:window-x="-8"
     inkscape:window-y="-8"
     inkscape:window-maximized="1"
     inkscape:current-layer="svg5133" />
  <path
     style="fill:#000000;stroke:#000000;stroke-width:1px;stroke-linecap:butt;stroke-linejoin:miter;stroke-opacity:1;fill-opacity:1"
     d="M 0.54131356,274.44597 C 154.81568,138.03496 102.30826,86.068855 102.30826,86.068855 102.30826,86.068855 161.85275,119.08898 118.00636,170.51377 118.00636,170.51377 49.259534,292.30931 0.54131356,274.44597 Z"
     id="path5145"
     inkscape:connector-curvature="0" />
  <path
     style="fill:#000000;stroke:#000000;stroke-width:1px;stroke-linecap:butt;stroke-linejoin:miter;stroke-opacity:1;fill-opacity:1"
     d="M 112.59322,198.12076 C 112.59322,198.12076 126.12606,211.6536 107.7214,294.47458 L 121.79555,327.4947 C 121.79555,327.4947 133.16314,328.57733 134.78708,231.6822 134.24577,204.61652 112.59322,198.12076 112.59322,198.12076 Z"
     id="path5147"
     inkscape:connector-curvature="0" />
  <path
     style="fill:#000000;stroke:#000000;stroke-width:1px;stroke-linecap:butt;stroke-linejoin:miter;stroke-opacity:1;fill-opacity:1"
     d="M 331.2839,330.74258 C 298.80509,272.82203 299.3464,252.25212 299.3464,252.25212 347.52331,270.11547 344.81674,288.52013 344.81674,288.52013 L 355.64301,342.11017 C 363.76271,413.56356 329.11864,341.02754 329.11864,341.02754 272.82203,334.53178 164.55932,364.30403 164.55932,364.30403 155.35699,403.2786 136.95233,369.71716 136.95233,369.71716 114.75847,358.34958 139.11758,346.98199 139.11758,346.98199 155.35699,317.20975 147.7786,301.51165 147.7786,301.51165 147.7786,301.51165 179.7161,308.54873 167.8072,344.81674 167.8072,344.81674 276.06992,319.9163 331.2839,330.74258 Z"
     id="path5149"
     inkscape:connector-curvature="0" />
  <path
     style="fill:#000000;stroke:#000000;stroke-width:1px;stroke-linecap:butt;stroke-linejoin:miter;stroke-opacity:1;fill-opacity:1"
     d="M 225.72775,337.23835 C 248.46292,235.4714 197.57945,218.14936 197.57945,218.14936 197.57945,218.14936 251.71081,213.81886 247.3803,257.12394 L 241.96716,344.27542 Z"
     id="path5151"
     inkscape:connector-curvature="0" />
  <path
     style="fill:#000000;stroke:#000000;stroke-width:1px;stroke-linecap:butt;stroke-linejoin:miter;stroke-opacity:1;fill-opacity:1"
     d="M 358.89089,14.615466 439.0053,73.07733 C 447.66632,-4.3305091 358.89089,14.615466 358.89089,14.615466 Z"
     id="path5153"
     inkscape:connector-curvature="0" />
  <path
     style="fill:#000000;stroke:#000000;stroke-width:1px;stroke-linecap:butt;stroke-linejoin:miter;stroke-opacity:1;fill-opacity:1"
     d="M 168.34852,126.12606 C 168.34852,126.12606 221.93856,138.57627 366.46928,76.325211 366.46928,76.325211 424.93114,78.490466 370.25847,96.353813 370.25847,96.353813 223.5625,132.08051 214.90148,159.14619 182.96398,183.5053 168.34852,126.12606 168.34852,126.12606 Z"
     id="path5155"
     inkscape:connector-curvature="0" />
  <path
     style="fill:#000000;stroke:#000000;stroke-width:1px;stroke-linecap:butt;stroke-linejoin:miter;stroke-opacity:1;fill-opacity:1"
     d="M 489.88877,323.70551 C 370.79979,331.2839 253.49216,74.945631 243.5911,70.370762 214.33562,56.853023 200.82733,28.689618 200.82733,28.689618 200.82733,28.689618 226.81038,17.863347 261.99576,44.929025 261.99576,44.929025 303.67691,206.24047 447.66632,286.89619 447.66632,286.89619 499.63242,215.98411 480.14512,299.3464 480.14512,299.3464 511.54131,322.08157 489.88877,323.70551 Z"
     id="path5157"
     inkscape:connector-curvature="0"
     sodipodi:nodetypes="csccccc" />
</svg>
