<?xml version="1.0" encoding="UTF-8" standalone="no"?>
<!-- Created with Inkscape (http://www.inkscape.org/) -->

<svg
   xmlns:dc="http://purl.org/dc/elements/1.1/"
   xmlns:cc="http://creativecommons.org/ns#"
   xmlns:rdf="http://www.w3.org/1999/02/22-rdf-syntax-ns#"
   xmlns:svg="http://www.w3.org/2000/svg"
   xmlns="http://www.w3.org/2000/svg"
   xmlns:sodipodi="http://sodipodi.sourceforge.net/DTD/sodipodi-0.dtd"
   xmlns:inkscape="http://www.inkscape.org/namespaces/inkscape"
   version="1.1"
   id="svg5721"
   width="615"
   height="515"
   viewBox="0 0 615 515"
   sodipodi:docname="U+5DBD.svg"
   inkscape:version="0.92.4 (5da689c313, 2019-01-14)">
  <metadata
     id="metadata5727">
    <rdf:RDF>
      <cc:Work
         rdf:about="">
        <dc:format>image/svg+xml</dc:format>
        <dc:type
           rdf:resource="http://purl.org/dc/dcmitype/StillImage" />
        <dc:title></dc:title>
      </cc:Work>
    </rdf:RDF>
  </metadata>
  <defs
     id="defs5725" />
  <sodipodi:namedview
     pagecolor="#ffffff"
     bordercolor="#666666"
     borderopacity="1"
     objecttolerance="10"
     gridtolerance="10"
     guidetolerance="10"
     inkscape:pageopacity="0"
     inkscape:pageshadow="2"
     inkscape:window-width="1920"
     inkscape:window-height="1017"
     id="namedview5723"
     showgrid="false"
     inkscape:zoom="1.8330097"
     inkscape:cx="298.37122"
     inkscape:cy="238.46236"
     inkscape:window-x="-8"
     inkscape:window-y="-8"
     inkscape:window-maximized="1"
     inkscape:current-layer="svg5721" />
  <path
     style="fill:#000000;stroke:#000000;stroke-width:1px;stroke-linecap:butt;stroke-linejoin:miter;stroke-opacity:1;fill-opacity:1"
     d="M 275.50318,21.822033 C 275.50318,21.822033 315.87394,4.9099571 277.68538,123.84004 277.68538,123.84004 281.50424,158.20975 290.7786,130.38665 L 320.7839,41.461864 C 320.7839,41.461864 333.33157,0.54554955 275.50318,21.822033 Z"
     id="path5731"
     inkscape:connector-curvature="0" />
  <path
     style="fill:#000000;stroke:#000000;stroke-width:1px;stroke-linecap:butt;stroke-linejoin:miter;stroke-opacity:1;fill-opacity:1"
     d="M 190.9428,144.57097 C 216.58369,120.56674 189.30614,85.651483 189.30614,85.651483 189.30614,85.651483 251.49894,106.38241 200.76271,150.02648 Z"
     id="path5733"
     inkscape:connector-curvature="0" />
  <path
     style="fill:#000000;stroke:#000000;stroke-width:1px;stroke-linecap:butt;stroke-linejoin:miter;stroke-opacity:1;fill-opacity:1"
     d="M 150.02648,157.11864 C 150.02648,157.11864 165.84746,184.39619 185.48729,172.93962 185.48729,172.93962 234.04131,147.29873 280.41314,145.66208 162.02861,139.11547 150.02648,157.11864 150.02648,157.11864 Z"
     id="path5735"
     inkscape:connector-curvature="0" />
  <path
     style="fill:#000000;stroke:#000000;stroke-width:1px;stroke-linecap:butt;stroke-linejoin:miter;stroke-opacity:1;fill-opacity:1"
     d="M 352.42585,141.84322 C 414.61864,81.832627 368.24682,68.739406 368.24682,68.739406 368.24682,68.739406 473.53814,69.830508 369.33792,141.84322 312.60063,170.21186 352.42585,141.84322 352.42585,141.84322 Z"
     id="path5737"
     inkscape:connector-curvature="0" />
  <path
     style="fill:#000000;stroke:#000000;stroke-width:1px;stroke-linecap:butt;stroke-linejoin:miter;stroke-opacity:1;fill-opacity:1"
     d="M 363.33686,216.58369 C 264.59216,235.67797 250.40784,256.95445 250.40784,256.95445 227.4947,271.68432 226.4036,253.13559 226.4036,253.13559 L 226.94915,171.30297 C 226.94915,171.30297 262.40996,186.03284 237.31462,234.58686 237.31462,234.58686 258.5911,236.22352 289.14195,222.03919 289.14195,222.03919 264.04661,183.85064 295.68856,189.85169 295.68856,189.85169 316.41949,187.66949 318.6017,213.31038 318.6017,213.31038 348.60698,198.03497 363.33686,216.58369 Z"
     id="path5739"
     inkscape:connector-curvature="0" />
  <path
     style="fill:#000000;stroke:#000000;stroke-width:1px;stroke-linecap:butt;stroke-linejoin:miter;stroke-opacity:1;fill-opacity:1"
     d="M 362.24576,155.48199 C 362.24576,155.48199 404.79873,145.11653 409.16314,183.30508 409.16314,183.30508 391.15996,293.50636 405.34428,365.51907 405.34428,365.51907 386.79555,444.62394 332.78602,450.07945 332.78602,450.07945 321.32945,449.5339 337.15042,440.25953 337.15042,440.25953 394.43326,426.07521 390.06886,298.96186 390.06886,298.96186 392.79661,198.03496 384.0678,179.48623 384.0678,179.48623 364.97351,169.12076 362.24576,155.48199 Z"
     id="path5743"
     inkscape:connector-curvature="0" />
  <path
     style="fill:#000000;stroke:#000000;stroke-width:1px;stroke-linecap:butt;stroke-linejoin:miter;stroke-opacity:1;fill-opacity:1"
     d="M 265.68326,279.32203 C 265.68326,279.32203 276.04873,294.05191 290.7786,287.5053 L 325.69386,267.86547 C 325.69386,267.86547 313.90241,259.59137 307.14513,259.6822 291.85378,259.88774 265.68326,279.32203 265.68326,279.32203 Z"
     id="path5749"
     inkscape:connector-curvature="0"
     sodipodi:nodetypes="cccac" />
  <path
     style="fill:#000000;stroke:#000000;stroke-width:1px;stroke-linecap:butt;stroke-linejoin:miter;stroke-opacity:1;fill-opacity:1"
     d="M 262.40996,312.60064 C 253.6145,315.53673 280.95869,333.33157 280.95869,333.33157 L 326.23941,319.6928 C 326.23941,319.6928 347.51589,302.78072 308.78178,303.32627 308.78178,303.32627 299.03673,300.37393 262.40996,312.60064 Z"
     id="path5751"
     inkscape:connector-curvature="0"
     sodipodi:nodetypes="scccs" />
  <path
     style="fill:#000000;stroke:#000000;stroke-width:1px;stroke-linecap:butt;stroke-linejoin:miter;stroke-opacity:1;fill-opacity:1"
     d="M 228.04025,362.24576 C 228.04025,362.24576 269.50212,411.34534 272.22987,465.35487 272.22987,465.35487 280.95869,481.7214 285.32309,457.71716 285.32309,457.71716 286.95974,374.24788 228.04025,362.24576 Z"
     id="path5753"
     inkscape:connector-curvature="0" />
  <path
     style="fill:#000000;stroke:#000000;stroke-width:1px;stroke-linecap:butt;stroke-linejoin:miter;stroke-opacity:1;fill-opacity:1"
     d="M 338.78708,409.16314 C 395.52436,347.51589 327.87606,350.78919 327.87606,350.78919 289.14195,371.52013 244.95233,378.06674 244.95233,378.06674 L 260.22775,390.06886 302.23517,375.33898 C 302.23517,375.33898 346.42479,361.70021 315.87394,409.70869 L 271.68432,426.62076 Z"
     id="path5755"
     inkscape:connector-curvature="0" />
  <path
     style="fill:#000000;stroke:#000000;stroke-width:1px;stroke-linecap:butt;stroke-linejoin:miter;stroke-opacity:1;fill-opacity:1"
     d="M 199.12606,212.21928 C 173.48517,204.03602 124.38559,169.66631 124.38559,169.66631 124.38559,169.66631 120.02119,204.03602 189.30614,220.94809 189.30614,220.94809 246.58898,247.13453 113.47458,307.69068 113.47458,307.69068 101.47246,312.05508 103.10911,289.6875 103.10911,289.6875 68.193856,308.78178 97.653602,329.51271 97.653602,329.51271 184.94174,284.23199 204.03602,263.50106 229.67691,235.67797 199.12606,212.21928 199.12606,212.21928 Z"
     id="path5757"
     inkscape:connector-curvature="0" />
  <path
     style="fill:#000000;stroke:#000000;stroke-width:1px;stroke-linecap:butt;stroke-linejoin:miter;stroke-opacity:1;fill-opacity:1"
     d="M 187.12394,269.50212 C 187.12394,269.50212 219.31144,345.33369 45.826271,441.89619 45.826271,441.89619 33.278602,454.98941 31.641949,420.07415 31.641949,420.07415 0,475.72034 39.279661,462.62712 39.279661,462.62712 78.559322,478.99364 197.48941,310.96398 197.48941,310.96398 211.67373,265.68326 199.12606,263.50106 Z"
     id="path5759"
     inkscape:connector-curvature="0" />
  <path
     style="fill:#000000;stroke:#000000;stroke-width:1px;stroke-linecap:butt;stroke-linejoin:miter;stroke-opacity:1;fill-opacity:1"
     d="M 222.0392,288.5964 C 222.0392,288.5964 210.03708,454.98941 177.84958,445.16949 177.84958,445.16949 156.57309,443.53284 151.11758,416.80085 151.11758,416.80085 160.39195,499.72458 203.49047,474.62924 203.49047,474.62924 229.13137,445.71505 222.0392,288.5964 Z"
     id="path5761"
     inkscape:connector-curvature="0" />
  <path
     style="fill:#000000;stroke:#000000;stroke-width:1px;stroke-linecap:butt;stroke-linejoin:miter;stroke-opacity:1;fill-opacity:1"
     d="M 469.71928,171.84852 C 469.71928,171.84852 500.27013,217.67479 519.36441,200.21716 537.36759,164.2108 469.71928,171.84852 469.71928,171.84852 Z"
     id="path5763"
     inkscape:connector-curvature="0" />
  <path
     style="fill:#000000;stroke:#000000;stroke-width:1px;stroke-linecap:butt;stroke-linejoin:miter;stroke-opacity:1;fill-opacity:1"
     d="M 342.06038,273.86653 C 342.06038,273.86653 418.98305,255.86335 438.07733,228.5858 438.07733,228.5858 551.00636,234.04131 478.99364,243.86123 478.99364,243.86123 397.16102,257.5 372.06568,282.59534 372.06568,282.59534 356.2447,296.77967 342.06038,273.86653 Z"
     id="path5765"
     inkscape:connector-curvature="0" />
  <path
     style="fill:#000000;stroke:#000000;stroke-width:1px;stroke-linecap:butt;stroke-linejoin:miter;stroke-opacity:1;fill-opacity:1"
     d="M 612.6536,406.98093 C 490.45021,386.79555 401.52542,292.41525 401.52542,292.41525 408.07203,268.95657 345.33369,248.77119 345.33369,248.77119 345.33369,248.77119 484.44915,409.70869 511.18114,424.43856 511.18114,424.43856 544.45974,437.53178 612.6536,406.98093 Z"
     id="path5767"
     inkscape:connector-curvature="0" />
</svg>
