<?xml version="1.0" encoding="UTF-8" standalone="no"?>
<!-- Created with Inkscape (http://www.inkscape.org/) -->

<svg
   xmlns:dc="http://purl.org/dc/elements/1.1/"
   xmlns:cc="http://creativecommons.org/ns#"
   xmlns:rdf="http://www.w3.org/1999/02/22-rdf-syntax-ns#"
   xmlns:svg="http://www.w3.org/2000/svg"
   xmlns="http://www.w3.org/2000/svg"
   xmlns:sodipodi="http://sodipodi.sourceforge.net/DTD/sodipodi-0.dtd"
   xmlns:inkscape="http://www.inkscape.org/namespaces/inkscape"
   version="1.1"
   id="svg6312"
   width="509"
   height="509"
   viewBox="0 0 509 509"
   sodipodi:docname="U+5E76.svg"
   inkscape:version="0.92.4 (5da689c313, 2019-01-14)">
  <metadata
     id="metadata6318">
    <rdf:RDF>
      <cc:Work
         rdf:about="">
        <dc:format>image/svg+xml</dc:format>
        <dc:type
           rdf:resource="http://purl.org/dc/dcmitype/StillImage" />
        <dc:title></dc:title>
      </cc:Work>
    </rdf:RDF>
  </metadata>
  <defs
     id="defs6316" />
  <sodipodi:namedview
     pagecolor="#ffffff"
     bordercolor="#666666"
     borderopacity="1"
     objecttolerance="10"
     gridtolerance="10"
     guidetolerance="10"
     inkscape:pageopacity="0"
     inkscape:pageshadow="2"
     inkscape:window-width="1920"
     inkscape:window-height="1017"
     id="namedview6314"
     showgrid="false"
     inkscape:zoom="0.92730845"
     inkscape:cx="123.43284"
     inkscape:cy="229.07633"
     inkscape:window-x="-8"
     inkscape:window-y="-8"
     inkscape:window-maximized="1"
     inkscape:current-layer="svg6312" />
  <path
     style="fill:#000000;stroke:#000000;stroke-width:1px;stroke-linecap:butt;stroke-linejoin:miter;stroke-opacity:1;fill-opacity:1"
     d="M 131.15632,65.203604 C 131.15632,65.203604 131.91886,85.792097 154.03243,93.417464 154.03243,93.417464 165.47048,101.80537 116.66812,132.30684 116.66812,132.30684 85.404117,157.47055 194.44687,110.19327 249.34951,64.441061 131.15632,65.203604 131.15632,65.203604 Z"
     id="path6322"
     inkscape:connector-curvature="0" />
  <path
     style="fill:#000000;stroke:#000000;stroke-width:1px;stroke-linecap:butt;stroke-linejoin:miter;stroke-opacity:1;fill-opacity:1"
     d="M 317.97783,37.752281 C 317.97783,37.752281 333.9911,104.09298 378.98077,85.792097 417.87014,69.016288 317.97783,37.752281 317.97783,37.752281 Z"
     id="path6324"
     inkscape:connector-curvature="0" />
  <path
     style="fill:#000000;stroke:#000000;stroke-width:1px;stroke-linecap:butt;stroke-linejoin:miter;stroke-opacity:1;fill-opacity:1"
     d="M 120.48081,184.15934 C 120.48081,184.15934 143.35691,208.56052 170.0457,200.17261 170.0457,200.17261 274.51323,149.46392 324.07812,157.85183 324.07812,157.85183 365.25511,122.39386 286.71382,136.11952 286.71382,136.11952 146.40706,166.621 120.48081,184.15934 Z"
     id="path6326"
     inkscape:connector-curvature="0"
     sodipodi:nodetypes="ccccc" />
  <path
     style="fill:#000000;stroke:#000000;stroke-width:1px;stroke-linecap:butt;stroke-linejoin:miter;stroke-opacity:1;fill-opacity:1"
     d="M 22.876103,293.96463 C 22.876103,293.96463 47.277279,327.51625 74.728603,310.74044 74.728603,310.74044 278.70719,207.03544 444.55893,248.21243 444.55893,248.21243 503.65553,213.517 381.64965,211.99193 381.64965,211.99193 38.126838,274.13867 22.876103,293.96463 Z"
     id="path6330"
     inkscape:connector-curvature="0"
     sodipodi:nodetypes="ccccc" />
  <path
     style="fill:#000000;stroke:#000000;stroke-width:1px;stroke-linecap:butt;stroke-linejoin:miter;stroke-opacity:1;fill-opacity:1"
     d="M 176.90853,192.54724 C 176.90853,192.54724 218.08551,345.0546 105.99261,415.97051 105.99261,415.97051 141.0693,454.85989 183.00882,345.81713 183.00882,345.81713 219.61059,230.67408 200.54717,175.0089 Z"
     id="path6332"
     inkscape:connector-curvature="0" />
  <path
     style="fill:#000000;stroke:#000000;stroke-width:1px;stroke-linecap:butt;stroke-linejoin:miter;stroke-opacity:1;fill-opacity:1"
     d="M 261.55011,156.70802 C 261.55011,156.70802 282.90114,228.38647 275.27577,441.13423 275.27577,441.13423 211.98522,406.05754 285.18875,483.07375 285.18875,483.07375 293.57665,496.03688 295.10173,440.37169 295.10173,440.37169 277.71783,271.01521 298.91441,184.15934 302.0463,171.326 279.08846,149.84518 279.08846,149.84518 Z"
     id="path6334"
     inkscape:connector-curvature="0"
     sodipodi:nodetypes="ccccscc" />
</svg>
