<?xml version="1.0" encoding="UTF-8" standalone="no"?>
<!-- Created with Inkscape (http://www.inkscape.org/) -->

<svg
   xmlns:dc="http://purl.org/dc/elements/1.1/"
   xmlns:cc="http://creativecommons.org/ns#"
   xmlns:rdf="http://www.w3.org/1999/02/22-rdf-syntax-ns#"
   xmlns:svg="http://www.w3.org/2000/svg"
   xmlns="http://www.w3.org/2000/svg"
   xmlns:sodipodi="http://sodipodi.sourceforge.net/DTD/sodipodi-0.dtd"
   xmlns:inkscape="http://www.inkscape.org/namespaces/inkscape"
   version="1.1"
   id="svg6009"
   width="513"
   height="513"
   viewBox="0 0 513 513"
   sodipodi:docname="U+6046.svg"
   inkscape:version="0.92.4 (5da689c313, 2019-01-14)">
  <metadata
     id="metadata6015">
    <rdf:RDF>
      <cc:Work
         rdf:about="">
        <dc:format>image/svg+xml</dc:format>
        <dc:type
           rdf:resource="http://purl.org/dc/dcmitype/StillImage" />
        <dc:title></dc:title>
      </cc:Work>
    </rdf:RDF>
  </metadata>
  <defs
     id="defs6013" />
  <sodipodi:namedview
     pagecolor="#ffffff"
     bordercolor="#666666"
     borderopacity="1"
     objecttolerance="10"
     gridtolerance="10"
     guidetolerance="10"
     inkscape:pageopacity="0"
     inkscape:pageshadow="2"
     inkscape:window-width="1920"
     inkscape:window-height="1017"
     id="namedview6011"
     showgrid="false"
     inkscape:zoom="1.8401559"
     inkscape:cx="223.69373"
     inkscape:cy="237.08047"
     inkscape:window-x="-8"
     inkscape:window-y="-8"
     inkscape:window-maximized="1"
     inkscape:current-layer="svg6009" />
  <path
     style="fill:#000000;stroke:#000000;stroke-width:1px;stroke-linecap:butt;stroke-linejoin:miter;stroke-opacity:1;fill-opacity:1"
     d="M 69.559322,241.2839 C 69.559322,241.2839 30.975636,278.78072 76.080509,312.47352 115.75106,251.06568 69.559322,241.2839 69.559322,241.2839 Z"
     id="path6562"
     inkscape:connector-curvature="0" />
  <path
     style="fill:#000000;stroke:#000000;stroke-width:1px;stroke-linecap:butt;stroke-linejoin:miter;stroke-opacity:1;fill-opacity:1"
     d="M 152.70445,189.11441 C 152.70445,189.11441 172.26801,210.85169 162.48623,217.37288 162.48623,217.37288 136.94492,234.76271 174.44174,240.74047 179.33263,240.19703 191.83157,229.32839 194.0053,208.67797 183.13666,177.15891 152.70445,189.11441 152.70445,189.11441 Z"
     id="path6568"
     inkscape:connector-curvature="0" />
  <path
     style="fill:#000000;stroke:#000000;stroke-width:1px;stroke-linecap:butt;stroke-linejoin:miter;stroke-opacity:1;fill-opacity:1"
     d="M 238.02331,130.96716 C 238.02331,130.96716 263.02119,156.50847 297.25742,139.11864 297.25742,139.11864 378.77225,109.22987 418.98623,117.38136 418.98623,117.38136 449.41843,105.96928 423.87712,99.448093 423.87712,99.448093 397.79237,91.840042 376.59852,97.817796 376.59852,97.817796 246.1748,111.94703 238.02331,130.96716 Z"
     id="path6570"
     inkscape:connector-curvature="0" />
  <path
     style="fill:#000000;stroke:#000000;stroke-width:1px;stroke-linecap:butt;stroke-linejoin:miter;stroke-opacity:1;fill-opacity:1"
     d="M 292.90996,308.66949 C 292.90996,308.66949 265.19492,306.49576 268.45551,284.75847 271.7161,263.02119 239.6536,184.22352 239.6536,184.22352 239.6536,184.22352 281.49788,191.83157 287.47564,253.78284 Z"
     id="path6572"
     inkscape:connector-curvature="0" />
  <path
     style="fill:#000000;stroke:#000000;stroke-width:1px;stroke-linecap:butt;stroke-linejoin:miter;stroke-opacity:1;fill-opacity:1"
     d="M 371.1642,271.17267 C 392.90148,244.00106 395.07521,205.9608 395.07521,205.9608 409.74788,153.24788 378.22881,172.26801 378.22881,172.26801 L 329.31992,190.7447 C 299.97458,202.70021 280.95445,183.68008 280.95445,183.68008 280.95445,183.68008 279.86759,167.37712 378.77225,159.76907 378.77225,159.76907 416.26907,147.81356 424.42055,171.18114 424.42055,171.18114 396.70551,267.91208 398.33581,283.12818 398.33581,283.12818 389.09746,321.16843 372.79449,289.64936 Z"
     id="path6576"
     inkscape:connector-curvature="0" />
  <path
     style="fill:#000000;stroke:#000000;stroke-width:1px;stroke-linecap:butt;stroke-linejoin:miter;stroke-opacity:1;fill-opacity:1"
     d="M 371.1642,271.17267 C 345.62289,267.91208 273.88983,283.67161 273.88983,283.67161 L 292.90996,308.66949 C 292.90996,308.66949 349.42691,279.32415 383.1197,292.90996 Z"
     id="path6578"
     inkscape:connector-curvature="0" />
  <path
     style="fill:#000000;stroke:#000000;stroke-width:1px;stroke-linecap:butt;stroke-linejoin:miter;stroke-opacity:1;fill-opacity:1"
     d="M 295.62712,238.0233 C 295.62712,238.0233 302.69174,256.5 334.75424,241.2839 L 358.66525,234.21928 C 358.66525,234.21928 383.66314,229.32839 357.57839,217.37288 357.57839,217.37288 295.08369,222.80719 295.62712,238.0233 Z"
     id="path6580"
     inkscape:connector-curvature="0" />
  <path
     style="fill:#000000;stroke:#000000;stroke-width:1px;stroke-linecap:butt;stroke-linejoin:miter;stroke-opacity:1;fill-opacity:1"
     d="M 164.65996,365.18644 C 164.65996,365.18644 188.57097,396.70551 235.30614,375.51165 235.30614,375.51165 399.42267,330.95021 451.04873,355.94809 451.04873,355.94809 500.50106,367.36017 458.65678,332.58051 458.65678,332.58051 438.00636,313.56038 389.64089,330.95021 389.64089,330.95021 173.89831,343.99258 164.65996,365.18644 Z"
     id="path6582"
     inkscape:connector-curvature="0" />
  <path
     style="fill:#000000;stroke:#000000;stroke-width:1px;stroke-linecap:butt;stroke-linejoin:miter;stroke-opacity:1;fill-opacity:1"
     d="M 97.817797,94.557203 C 97.817797,94.557203 141.29237,117.92479 122.81568,192.375 122.81568,192.375 123.35911,442.35381 109.22987,457.56992 109.22987,457.56992 129.8803,552.67055 133.14089,460.83051 133.14089,460.83051 130.42373,220.09004 133.14089,203.24364 133.14089,203.24364 133.14089,160.3125 152.70445,139.66208 177.1589,85.862296 97.817797,94.557203 97.817797,94.557203 Z"
     id="path6586"
     inkscape:connector-curvature="0" />
</svg>
