<?xml version="1.0" encoding="UTF-8" standalone="no"?>
<!-- Created with Inkscape (http://www.inkscape.org/) -->

<svg
   xmlns:dc="http://purl.org/dc/elements/1.1/"
   xmlns:cc="http://creativecommons.org/ns#"
   xmlns:rdf="http://www.w3.org/1999/02/22-rdf-syntax-ns#"
   xmlns:svg="http://www.w3.org/2000/svg"
   xmlns="http://www.w3.org/2000/svg"
   xmlns:sodipodi="http://sodipodi.sourceforge.net/DTD/sodipodi-0.dtd"
   xmlns:inkscape="http://www.inkscape.org/namespaces/inkscape"
   version="1.1"
   id="svg4314"
   width="511"
   height="511"
   viewBox="0 0 511 511"
   sodipodi:docname="U+767E.svg"
   inkscape:version="0.92.4 (5da689c313, 2019-01-14)">
  <metadata
     id="metadata4320">
    <rdf:RDF>
      <cc:Work
         rdf:about="">
        <dc:format>image/svg+xml</dc:format>
        <dc:type
           rdf:resource="http://purl.org/dc/dcmitype/StillImage" />
        <dc:title></dc:title>
      </cc:Work>
    </rdf:RDF>
  </metadata>
  <defs
     id="defs4318" />
  <sodipodi:namedview
     pagecolor="#ffffff"
     bordercolor="#666666"
     borderopacity="1"
     objecttolerance="10"
     gridtolerance="10"
     guidetolerance="10"
     inkscape:pageopacity="0"
     inkscape:pageshadow="2"
     inkscape:window-width="1920"
     inkscape:window-height="1017"
     id="namedview4316"
     showgrid="false"
     inkscape:zoom="1.3062795"
     inkscape:cx="290.72026"
     inkscape:cy="196.86086"
     inkscape:window-x="-8"
     inkscape:window-y="-8"
     inkscape:window-maximized="1"
     inkscape:current-layer="svg4314" />
  <path
     style="fill:#000000;stroke:#000000;stroke-width:1px;stroke-linecap:butt;stroke-linejoin:miter;stroke-opacity:1;fill-opacity:1"
     d="M 23.731522,137.41991 C 23.731522,137.41991 35.98005,191.00722 132.43721,155.7927 132.43721,155.7927 239.61182,92.253461 402.67035,137.41991 402.67035,137.41991 465.44405,145.84077 404.20141,109.09519 404.20141,109.09519 378.17329,84.598131 222.00456,114.45392 222.00456,114.45392 77.31883,151.96504 23.731522,137.41991 Z"
     id="path4867"
     inkscape:connector-curvature="0" />
  <path
     style="fill:#000000;stroke:#000000;stroke-width:1px;stroke-linecap:butt;stroke-linejoin:miter;stroke-opacity:1;fill-opacity:1"
     d="M 199.03857,126.70245 C 199.03857,126.70245 225.0667,158.85483 178.36918,213.9732 131.67167,269.09158 183.72791,236.93919 183.72791,236.93919 L 231.19096,164.97909 C 231.19096,164.97909 253.39142,142.77864 219.70796,130.53011 Z"
     id="path4869"
     inkscape:connector-curvature="0" />
  <path
     style="fill:#000000;stroke:#000000;stroke-width:1px;stroke-linecap:butt;stroke-linejoin:miter;stroke-opacity:1;fill-opacity:1"
     d="M 162.29299,351.76914 C 170.71385,253.78092 147.74786,200.19361 147.74786,200.19361 147.74786,200.19361 188.32111,193.30381 179.13472,265.26391 L 179.13472,389.28026 Z"
     id="path4871"
     inkscape:connector-curvature="0" />
  <path
     style="fill:#000000;stroke:#000000;stroke-width:1px;stroke-linecap:butt;stroke-linejoin:miter;stroke-opacity:1;fill-opacity:1"
     d="M 176.83812,226.22173 272.52974,207.08341 C 272.52974,207.08341 309.27532,183.35189 302.38553,253.01539 L 305.44766,377.03173 C 305.44766,377.03173 255.68801,344.11381 301.61999,408.41858 301.61999,408.41858 314.63405,426.79137 321.52385,396.93559 321.52385,396.93559 319.22725,211.67661 326.88258,219.33194 326.88258,219.33194 337.60004,190.24168 284.01273,186.41402 284.01273,186.41402 210.52157,209.38001 205.16284,197.13148 Z"
     id="path4873"
     inkscape:connector-curvature="0" />
  <path
     style="fill:#000000;stroke:#000000;stroke-width:1px;stroke-linecap:butt;stroke-linejoin:miter;stroke-opacity:1;fill-opacity:1"
     d="M 192.14878,282.87117 C 192.14878,282.87117 204.39731,312.72696 237.31522,290.5265 237.31522,290.5265 244.97055,281.34011 287.07487,272.91924 L 262.57781,261.43625 C 262.57781,261.43625 194.44538,270.62264 192.14878,282.87117 Z"
     id="path4875"
     inkscape:connector-curvature="0" />
  <path
     style="fill:#000000;stroke:#000000;stroke-width:1px;stroke-linecap:butt;stroke-linejoin:miter;stroke-opacity:1;fill-opacity:1"
     d="M 171.47939,358.65894 313.10299,337.98955 314.63405,374.73513 C 314.63405,374.73513 274.82634,340.28615 175.30705,379.32833 Z"
     id="path4879"
     inkscape:connector-curvature="0" />
</svg>
