<?xml version="1.0" encoding="UTF-8" standalone="no"?>
<!-- Created with Inkscape (http://www.inkscape.org/) -->

<svg
   xmlns:dc="http://purl.org/dc/elements/1.1/"
   xmlns:cc="http://creativecommons.org/ns#"
   xmlns:rdf="http://www.w3.org/1999/02/22-rdf-syntax-ns#"
   xmlns:svg="http://www.w3.org/2000/svg"
   xmlns="http://www.w3.org/2000/svg"
   xmlns:sodipodi="http://sodipodi.sourceforge.net/DTD/sodipodi-0.dtd"
   xmlns:inkscape="http://www.inkscape.org/namespaces/inkscape"
   version="1.1"
   id="svg7462"
   width="515"
   height="513"
   viewBox="0 0 515 513"
   sodipodi:docname="U+79AA.svg"
   inkscape:version="0.92.4 (5da689c313, 2019-01-14)">
  <metadata
     id="metadata7468">
    <rdf:RDF>
      <cc:Work
         rdf:about="">
        <dc:format>image/svg+xml</dc:format>
        <dc:type
           rdf:resource="http://purl.org/dc/dcmitype/StillImage" />
        <dc:title></dc:title>
      </cc:Work>
    </rdf:RDF>
  </metadata>
  <defs
     id="defs7466" />
  <sodipodi:namedview
     pagecolor="#ffffff"
     bordercolor="#666666"
     borderopacity="1"
     objecttolerance="10"
     gridtolerance="10"
     guidetolerance="10"
     inkscape:pageopacity="0"
     inkscape:pageshadow="2"
     inkscape:window-width="1920"
     inkscape:window-height="1017"
     id="namedview7464"
     showgrid="false"
     inkscape:zoom="0.92007797"
     inkscape:cx="11.614997"
     inkscape:cy="331.97989"
     inkscape:window-x="-8"
     inkscape:window-y="-8"
     inkscape:window-maximized="1"
     inkscape:current-layer="svg7462" />
  <path
     style="fill:#000000;stroke:#000000;stroke-width:1px;stroke-linecap:butt;stroke-linejoin:miter;stroke-opacity:1;fill-opacity:1"
     d="M 99.448093,15.759533 C 99.448093,15.759533 123.90254,45.104872 158.13877,49.45233 155.96504,-3.804026 99.448093,15.759533 99.448093,15.759533 Z"
     id="path7472"
     inkscape:connector-curvature="0" />
  <path
     style="fill:#000000;stroke:#000000;stroke-width:1px;stroke-linecap:butt;stroke-linejoin:miter;stroke-opacity:1;fill-opacity:1"
     d="M 163.57309,113.0339 C 182.59322,105.96928 174.44174,100.53496 174.44174,100.53496 154.87818,84.231991 148.35699,97.817796 148.35699,97.817796 90.753178,158.6822 14.129237,146.72669 14.129237,146.72669 14.129237,146.72669 -7.0646187,171.72458 33.692797,177.70233 33.692797,177.70233 41.300848,181.50636 52.169492,174.98517 52.169492,174.98517 131.51059,114.12077 163.57309,113.0339 Z"
     id="path7478"
     inkscape:connector-curvature="0" />
  <path
     style="fill:#000000;stroke:#000000;stroke-width:1px;stroke-linecap:butt;stroke-linejoin:miter;stroke-opacity:1;fill-opacity:1"
     d="M 70.102754,210.30826 C 70.102754,210.30826 63.581568,232.04555 7.0646187,272.25953 98.904661,242.37076 70.102754,210.30826 70.102754,210.30826 Z"
     id="path7480"
     inkscape:connector-curvature="0" />
  <path
     style="fill:#000000;stroke:#000000;stroke-width:1px;stroke-linecap:butt;stroke-linejoin:miter;stroke-opacity:1;fill-opacity:1"
     d="M 115.75106,375.51165 C 97.274365,367.36017 108.68644,335.29767 108.68644,335.29767 115.75106,331.49364 123.90254,191.83157 123.90254,191.83157 128.79343,181.50636 119.01165,178.24576 119.01165,178.24576 L 138.03178,152.16102 C 138.03178,152.16102 121.72881,271.17267 128.25,359.20869 128.25,359.20869 121.72881,386.92372 115.75106,375.51165 Z"
     id="path7482"
     inkscape:connector-curvature="0" />
  <path
     style="fill:#000000;stroke:#000000;stroke-width:1px;stroke-linecap:butt;stroke-linejoin:miter;stroke-opacity:1;fill-opacity:1"
     d="M 175.5286,229.32839 C 170.09428,191.83157 127.70657,197.80932 127.70657,197.80932 127.70657,197.80932 141.83581,196.72246 158.13877,230.95869 158.13877,230.95869 170.63771,249.43538 175.5286,229.32839 Z"
     id="path7484"
     inkscape:connector-curvature="0" />
  <path
     style="fill:#000000;stroke:#000000;stroke-width:1px;stroke-linecap:butt;stroke-linejoin:miter;stroke-opacity:1;fill-opacity:1"
     d="M 247.26165,101.62182 C 251.60911,49.45233 202.70021,51.626059 202.70021,51.626059 202.70021,51.626059 248.89195,88.036017 233.67585,122.27225 233.67585,122.27225 247.26165,143.4661 251.60911,116.29449 Z"
     id="path7486"
     inkscape:connector-curvature="0" />
  <path
     style="fill:#000000;stroke:#000000;stroke-width:1px;stroke-linecap:butt;stroke-linejoin:miter;stroke-opacity:1;fill-opacity:1"
     d="M 253.23941,100.53496 C 307.58263,97.274364 293.45339,70.646186 293.45339,70.646186 293.45339,70.646186 290.1928,53.799788 271.17267,64.668432 252.15254,75.537076 246.17479,44.018008 246.17479,44.018008 L 293.99682,32.062499 C 293.99682,32.062499 326.05932,19.020127 316.27754,51.626059 L 310.29979,95.644067 C 310.29979,95.644067 316.82097,102.16525 307.0392,105.42585 297.25742,108.68644 246.17479,115.75106 246.17479,115.75106 L 240.74047,103.79555 Z"
     id="path7488"
     inkscape:connector-curvature="0" />
  <path
     style="fill:#000000;stroke:#000000;stroke-width:1px;stroke-linecap:butt;stroke-linejoin:miter;stroke-opacity:1;fill-opacity:1"
     d="M 334.21081,26.628177 C 334.21081,26.628177 340.18856,47.822033 338.55826,83.688559 L 351.0572,103.25212 361.38242,107.59958 364.64301,99.448093 358.66525,79.884533 C 358.66525,79.884533 377.14196,35.323092 334.21081,26.628177 Z"
     id="path7490"
     inkscape:connector-curvature="0" />
  <path
     style="fill:#000000;stroke:#000000;stroke-width:1px;stroke-linecap:butt;stroke-linejoin:miter;stroke-opacity:1;fill-opacity:1"
     d="M 403.77013,76.080508 C 412.46504,34.779661 377.68538,48.908898 377.68538,48.908898 L 358.66525,24.997881 405.94386,20.650423 C 405.94386,20.650423 416.8125,-5.4135467e-7 428.22458,8.6949147 V 8.6949147 C 428.22458,8.6949147 460.83051,22.824152 438.00636,34.236228 L 422.79025,72.819915 C 422.79025,72.819915 440.72352,90.753178 420.61653,92.383474 L 364.64301,99.448093 349.97034,78.254237 Z"
     id="path7492"
     inkscape:connector-curvature="0" />
  <path
     style="fill:#000000;stroke:#000000;stroke-width:1px;stroke-linecap:butt;stroke-linejoin:miter;stroke-opacity:1;fill-opacity:1"
     d="M 258.1303,252.69597 C 258.67373,188.02754 209.2214,156.50847 209.2214,156.50847 209.2214,156.50847 272.80297,133.68432 266.28178,251.60911 Z"
     id="path7494"
     inkscape:connector-curvature="0" />
  <path
     style="fill:#000000;stroke:#000000;stroke-width:1px;stroke-linecap:butt;stroke-linejoin:miter;stroke-opacity:1;fill-opacity:1"
     d="M 384.20657,203.24364 C 426.59428,117.92479 384.75,136.40148 384.75,136.40148 357.57839,132.05403 293.99682,154.87818 293.99682,154.87818 280.41102,167.92055 260.30403,144.55297 260.30403,144.55297 260.30403,144.55297 380.94597,127.16314 387.46716,120.09852 387.46716,120.09852 420.61653,126.6197 424.96398,136.40148 424.96398,136.40148 440.72352,138.03178 418.4428,160.85593 L 401.5964,205.41737 C 401.5964,205.41737 391.27119,213.02542 384.20657,203.24364 Z"
     id="path7496"
     inkscape:connector-curvature="0" />
  <path
     style="fill:#000000;stroke:#000000;stroke-width:1px;stroke-linecap:butt;stroke-linejoin:miter;stroke-opacity:1;fill-opacity:1"
     d="M 270.62924,200.52648 356.49153,182.04979 C 356.49153,182.04979 370.62076,183.68008 373.88136,195.09216 377.14195,206.50424 284.75847,212.48199 284.75847,212.48199 Z"
     id="path7498"
     inkscape:connector-curvature="0" />
  <path
     style="fill:#000000;stroke:#000000;stroke-width:1px;stroke-linecap:butt;stroke-linejoin:miter;stroke-opacity:1;fill-opacity:1"
     d="M 236.39301,257.58686 251.06568,271.7161 C 251.06568,271.7161 351.0572,234.21928 375.51165,252.15254 375.51165,252.15254 390.72775,260.30403 389.64089,235.84958 388.55403,211.39513 236.39301,257.58686 236.39301,257.58686 Z"
     id="path7500"
     inkscape:connector-curvature="0" />
  <path
     style="fill:#000000;stroke:#000000;stroke-width:1px;stroke-linecap:butt;stroke-linejoin:miter;stroke-opacity:1;fill-opacity:1"
     d="M 145.0964,333.66737 C 145.0964,333.66737 166.83369,359.20869 190.20127,340.73199 190.20127,340.73199 343.44915,259.76059 474.95975,320.08157 474.95975,320.08157 520.06462,326.05932 483.65466,299.43114 483.65466,299.43114 467.3517,277.15042 420.07309,284.21504 420.07309,284.21504 156.50848,295.08368 145.0964,333.66737 Z"
     id="path7502"
     inkscape:connector-curvature="0" />
  <path
     style="fill:#000000;stroke:#000000;stroke-width:1px;stroke-linecap:butt;stroke-linejoin:miter;stroke-opacity:1;fill-opacity:1"
     d="M 307.58263,126.6197 C 307.58263,126.6197 319.53814,148.35699 315.19068,230.41525 341.27543,166.29025 330.95021,133.68432 330.95021,133.68432 Z"
     id="path7504"
     inkscape:connector-curvature="0" />
  <path
     style="fill:#000000;stroke:#000000;stroke-width:1px;stroke-linecap:butt;stroke-linejoin:miter;stroke-opacity:1;fill-opacity:1"
     d="M 316.82097,465.17797 C 334.21081,321.16843 315.19068,282.58475 315.19068,282.58475 315.19068,282.58475 330.40678,284.75847 335.29767,310.29979 335.29767,310.29979 344.53602,441.26695 318.9947,466.26483"
     id="path7506"
     inkscape:connector-curvature="0" />
  <path
     style="fill:#000000;stroke:#000000;stroke-width:1px;stroke-linecap:butt;stroke-linejoin:miter;stroke-opacity:1;fill-opacity:1"
     d="M 293.45339,472.78602 C 302.69174,490.71928 333.12394,473.32945 333.12394,473.32945 333.12394,473.32945 343.99259,471.69915 339.64513,490.71928 339.64513,490.71928 332.58051,537.99788 307.58263,501.04449 Z"
     id="path7508"
     inkscape:connector-curvature="0" />
</svg>
