<?xml version="1.0" encoding="UTF-8" standalone="no"?>
<!-- Created with Inkscape (http://www.inkscape.org/) -->

<svg
   xmlns:dc="http://purl.org/dc/elements/1.1/"
   xmlns:cc="http://creativecommons.org/ns#"
   xmlns:rdf="http://www.w3.org/1999/02/22-rdf-syntax-ns#"
   xmlns:svg="http://www.w3.org/2000/svg"
   xmlns="http://www.w3.org/2000/svg"
   xmlns:sodipodi="http://sodipodi.sourceforge.net/DTD/sodipodi-0.dtd"
   xmlns:inkscape="http://www.inkscape.org/namespaces/inkscape"
   version="1.1"
   id="svg837"
   width="513"
   height="513"
   viewBox="0 0 513 513"
   sodipodi:docname="U+79E6.svg"
   inkscape:version="0.92.4 (5da689c313, 2019-01-14)">
  <metadata
     id="metadata843">
    <rdf:RDF>
      <cc:Work
         rdf:about="">
        <dc:format>image/svg+xml</dc:format>
        <dc:type
           rdf:resource="http://purl.org/dc/dcmitype/StillImage" />
        <dc:title></dc:title>
      </cc:Work>
    </rdf:RDF>
  </metadata>
  <defs
     id="defs841" />
  <sodipodi:namedview
     pagecolor="#ffffff"
     bordercolor="#666666"
     borderopacity="1"
     objecttolerance="10"
     gridtolerance="10"
     guidetolerance="10"
     inkscape:pageopacity="0"
     inkscape:pageshadow="2"
     inkscape:window-width="1920"
     inkscape:window-height="1017"
     id="namedview839"
     showgrid="false"
     inkscape:zoom="1.3011867"
     inkscape:cx="225.07119"
     inkscape:cy="297.15376"
     inkscape:window-x="-8"
     inkscape:window-y="-8"
     inkscape:window-maximized="1"
     inkscape:current-layer="svg837" />
  <path
     style="fill:#000000;stroke:#000000;stroke-width:1px;stroke-linecap:butt;stroke-linejoin:miter;stroke-opacity:1;fill-opacity:1"
     d="M 175.22466,54.572336 C 175.22466,54.572336 190.21098,86.850562 215.9567,80.318064 215.9567,80.318064 273.21213,59.183511 311.25432,62.257628 311.25432,62.257628 355.82902,57.262188 327.39344,48.424103 327.39344,48.424103 301.64771,39.970282 257.07302,55.340865 257.07302,55.340865 198.28054,73.017036 175.22466,54.572336 Z"
     id="path1390"
     inkscape:connector-curvature="0" />
  <path
     style="fill:#000000;stroke:#000000;stroke-width:1px;stroke-linecap:butt;stroke-linejoin:miter;stroke-opacity:1;fill-opacity:1"
     d="M 132.18702,115.28614 C 132.18702,115.28614 141.40937,140.26334 160.6226,141.03187 160.6226,141.03187 170.99775,143.72172 184.44701,136.4207 184.44701,136.4207 241.31817,104.52673 323.93505,97.609971 323.93505,97.609971 340.8427,88.771885 321.2452,84.929239 321.2452,84.929239 278.20757,80.318064 243.62375,100.29982 243.62375,100.29982 159.85407,131.80952 132.18702,115.28614 Z"
     id="path1392"
     inkscape:connector-curvature="0" />
  <path
     style="fill:#000000;stroke:#000000;stroke-width:1px;stroke-linecap:butt;stroke-linejoin:miter;stroke-opacity:1;fill-opacity:1"
     d="M 101.06159,186.37509 136.41393,200.59288 C 136.41393,200.59288 152.93731,207.89391 166.00231,195.59744 166.00231,195.59744 266.67963,132.57805 364.6671,152.17554 364.6671,152.17554 393.87121,156.01819 382.34327,135.2679 382.34327,135.2679 369.27828,118.74452 322.398,130.65673 322.398,130.65673 97.987474,172.54156 101.06159,186.37509 Z"
     id="path1394"
     inkscape:connector-curvature="0" />
  <path
     style="fill:#000000;stroke:#000000;stroke-width:1px;stroke-linecap:butt;stroke-linejoin:miter;stroke-opacity:1;fill-opacity:1"
     d="M 222.8072,1.6302961 C 222.8072,1.6302961 263.02119,14.672669 217.37288,141.29237 217.37288,141.29237 173.35487,267.91208 114.12076,309.75636 114.12076,309.75636 39.670551,376.59852 19.563559,339.10169 19.563559,339.10169 12.498941,366.81674 36.409958,367.36017 36.409958,367.36017 82.058263,391.27119 160.85593,285.84534 160.85593,285.84534 223.13945,180.49265 243.62375,100.29982 L 263.02119,34.779661 C 263.02119,34.779661 271.71609,-4.3474581 222.8072,1.6302961 Z"
     id="path1396"
     inkscape:connector-curvature="0" />
  <path
     style="fill:#000000;fill-opacity:1;stroke:#000000;stroke-width:1px;stroke-linecap:butt;stroke-linejoin:miter;stroke-opacity:1"
     d="M 509.53485,292.43212 C 437.29311,320.09917 429.60782,310.87683 429.60782,310.87683 395.024,304.7286 250.54052,142.56893 250.54052,142.56893 250.54052,142.56893 376.5793,240.17214 400.40371,257.07978 400.40371,257.07978 412.70017,274.75595 509.53485,292.43212 Z"
     id="path1398"
     inkscape:connector-curvature="0"
     sodipodi:nodetypes="ccccc" />
  <path
     style="fill:#000000;stroke:#000000;stroke-width:1px;stroke-linecap:butt;stroke-linejoin:miter;stroke-opacity:1;fill-opacity:1"
     d="M 209.80847,245.55184 C 209.80847,245.55184 214.41964,267.07066 232.86435,258.61684 232.86435,258.61684 255.92022,240.94067 292.80962,233.25537 292.80962,233.25537 303.56903,221.72744 286.66139,221.72744 286.66139,221.72744 211.34553,249.39449 209.80847,245.55184 Z"
     id="path1400"
     inkscape:connector-curvature="0" />
  <path
     style="fill:#000000;stroke:#000000;stroke-width:1px;stroke-linecap:butt;stroke-linejoin:miter;stroke-opacity:1;fill-opacity:1"
     d="M 182.14142,307.80271 C 182.14142,307.80271 198.28053,343.15505 219.03082,323.17329 219.03082,323.17329 275.90198,290.89506 320.47667,298.58036 320.47667,298.58036 340.45843,294.73771 319.70814,282.44124 319.70814,282.44124 208.27141,285.51537 182.14142,307.80271 Z"
     id="path1402"
     inkscape:connector-curvature="0" />
  <path
     style="fill:#000000;stroke:#000000;stroke-width:1px;stroke-linecap:butt;stroke-linejoin:miter;stroke-opacity:1;fill-opacity:1"
     d="M 168.30789,350.07181 C 168.30789,350.07181 143.71496,380.04445 175.22466,401.56327 201.35466,386.96122 168.30789,350.07181 168.30789,350.07181 Z"
     id="path1404"
     inkscape:connector-curvature="0" />
  <path
     style="fill:#000000;stroke:#000000;stroke-width:1px;stroke-linecap:butt;stroke-linejoin:miter;stroke-opacity:1;fill-opacity:1"
     d="M 305.10609,337.77534 C 305.10609,337.77534 343.53255,380.81298 335.84726,390.80386 396.56107,346.22917 305.10609,337.77534 305.10609,337.77534 Z"
     id="path1406"
     inkscape:connector-curvature="0" />
  <path
     style="fill:#000000;fill-opacity:1;stroke:#000000;stroke-width:1px;stroke-linecap:butt;stroke-linejoin:miter;stroke-opacity:1"
     d="M 245.16081,383.11857 C 278.9761,208.66244 227.48464,205.58832 227.48464,205.58832 227.48464,205.58832 255.92022,190.21774 268.21669,219.42185 268.21669,219.42185 285.12433,325.47888 268.98522,399.25768 268.98522,399.25768 260.53139,463.81414 240.54963,420.7765 240.54963,420.7765 192.90083,354.683 245.16081,383.11857 Z"
     id="path1408"
     inkscape:connector-curvature="0"
     sodipodi:nodetypes="cccccc" />
</svg>
