<?xml version="1.0" encoding="UTF-8" standalone="no"?>
<!-- Created with Inkscape (http://www.inkscape.org/) -->

<svg
   xmlns:dc="http://purl.org/dc/elements/1.1/"
   xmlns:cc="http://creativecommons.org/ns#"
   xmlns:rdf="http://www.w3.org/1999/02/22-rdf-syntax-ns#"
   xmlns:svg="http://www.w3.org/2000/svg"
   xmlns="http://www.w3.org/2000/svg"
   xmlns:sodipodi="http://sodipodi.sourceforge.net/DTD/sodipodi-0.dtd"
   xmlns:inkscape="http://www.inkscape.org/namespaces/inkscape"
   version="1.1"
   id="svg6879"
   width="513"
   height="513"
   viewBox="0 0 513 513"
   sodipodi:docname="U+7D2B.svg"
   inkscape:version="0.92.4 (5da689c313, 2019-01-14)">
  <metadata
     id="metadata6885">
    <rdf:RDF>
      <cc:Work
         rdf:about="">
        <dc:format>image/svg+xml</dc:format>
        <dc:type
           rdf:resource="http://purl.org/dc/dcmitype/StillImage" />
        <dc:title></dc:title>
      </cc:Work>
    </rdf:RDF>
  </metadata>
  <defs
     id="defs6883" />
  <sodipodi:namedview
     pagecolor="#ffffff"
     bordercolor="#666666"
     borderopacity="1"
     objecttolerance="10"
     gridtolerance="10"
     guidetolerance="10"
     inkscape:pageopacity="0"
     inkscape:pageshadow="2"
     inkscape:window-width="1920"
     inkscape:window-height="1017"
     id="namedview6881"
     showgrid="false"
     inkscape:zoom="1.8401559"
     inkscape:cx="307.33994"
     inkscape:cy="280.1503"
     inkscape:window-x="-8"
     inkscape:window-y="-8"
     inkscape:window-maximized="1"
     inkscape:current-layer="svg6879" />
  <path
     style="fill:#000000;stroke:#000000;stroke-width:1px;stroke-linecap:butt;stroke-linejoin:miter;stroke-opacity:1;fill-opacity:1"
     d="M 191.83157,163.57309 C 185.85381,102.70869 164.65996,88.036017 164.65996,88.036017 96.730932,36.409957 143.4661,34.779661 143.4661,34.779661 143.4661,34.779661 201.61335,22.824152 201.61335,104.88241 L 206.50424,164.11653 Z"
     id="path6889"
     inkscape:connector-curvature="0" />
  <path
     style="fill:#000000;stroke:#000000;stroke-width:1px;stroke-linecap:butt;stroke-linejoin:miter;stroke-opacity:1;fill-opacity:1"
     d="M 70.102754,114.66419 C 70.102754,114.66419 47.822034,132.59746 101.62182,203.78708 101.62182,203.78708 118.46822,208.13453 80.427966,260.30403 80.427966,260.30403 67.929025,284.75847 91.840042,263.02119 91.840042,263.02119 109.77331,232.58898 114.12076,200.52648 108.143,108.143 70.102754,114.66419 70.102754,114.66419 Z"
     id="path6891"
     inkscape:connector-curvature="0" />
  <path
     style="fill:#000000;stroke:#000000;stroke-width:1px;stroke-linecap:butt;stroke-linejoin:miter;stroke-opacity:1;fill-opacity:1"
     d="M 256.5,67.929025 C 256.5,67.929025 254.32627,96.1875 217.91631,121.18538 217.91631,121.18538 223.89407,148.35699 251.60911,145.63983 L 266.28178,102.70869 C 266.28178,102.70869 254.8697,80.971398 256.5,67.929025 Z"
     id="path6893"
     inkscape:connector-curvature="0" />
  <path
     style="fill:#000000;stroke:#000000;stroke-width:1px;stroke-linecap:butt;stroke-linejoin:miter;stroke-opacity:1;fill-opacity:1"
     d="M 103.25212,193.46186 C 103.25212,193.46186 303.7786,113.57733 382.03284,101.62182 382.03284,101.62182 461.91737,104.88241 390.72775,122.81568 390.72775,122.81568 163.02966,160.3125 133.14089,210.85169 110.86017,214.65571 103.25212,193.46186 103.25212,193.46186 Z"
     id="path6895"
     inkscape:connector-curvature="0" />
  <path
     style="fill:#000000;stroke:#000000;stroke-width:1px;stroke-linecap:butt;stroke-linejoin:miter;stroke-opacity:1;fill-opacity:1"
     d="M 258.1303,280.95445 160.85593,318.45127 C 141.29237,347.79661 135.85805,317.36441 135.85805,317.36441 95.100636,297.80085 152.16102,297.25742 152.16102,297.25742 L 209.2214,251.06568 C 209.2214,251.06568 191.28814,248.89195 157.59534,263.56462 123.90254,278.23729 139.66208,244.54449 139.66208,244.54449 240.19703,185.85381 217.91631,174.98517 217.91631,174.98517 217.91631,174.98517 255.95657,180.41949 217.91631,209.2214 L 174.98517,233.13241 223.89407,232.58898 C 223.89407,232.58898 249.97881,222.8072 236.93644,210.30826 236.93644,210.30826 274.43326,203.24364 259.76059,227.69809 259.76059,227.69809 186.94068,269.54237 173.35487,289.64936 159.76907,309.75636 248.89195,277.15042 248.89195,277.15042 248.89195,277.15042 261.93432,275.52013 247.80509,259.21716 247.80509,259.21716 288.01907,256.5 283.67161,282.04131 283.67161,282.04131 295.08369,323.34216 258.1303,280.95445 Z"
     id="path6897"
     inkscape:connector-curvature="0" />
  <path
     style="fill:#000000;stroke:#000000;stroke-width:1px;stroke-linecap:butt;stroke-linejoin:miter;stroke-opacity:1;fill-opacity:1"
     d="M 122.81568,359.75212 C 122.81568,359.75212 91.29661,410.29131 132.05403,411.92161 150.53073,372.79449 122.81568,359.75212 122.81568,359.75212 Z"
     id="path6899"
     inkscape:connector-curvature="0" />
  <path
     style="fill:#000000;stroke:#000000;stroke-width:1px;stroke-linecap:butt;stroke-linejoin:miter;stroke-opacity:1;fill-opacity:1"
     d="M 286.9322,327.14619 C 286.9322,327.14619 289.10593,368.44703 330.40678,381.48941 359.75212,324.42903 286.9322,327.14619 286.9322,327.14619 Z"
     id="path6901"
     inkscape:connector-curvature="0" />
  <path
     style="fill:#000000;stroke:#000000;stroke-width:1px;stroke-linecap:butt;stroke-linejoin:miter;stroke-opacity:1;fill-opacity:1"
     d="M 192.91843,317.90784 C 192.91843,317.90784 216.82945,327.14619 209.76483,386.92373 209.76483,386.92373 209.2214,417.35593 179.33263,399.42267 L 202.70021,432.57203 C 202.70021,432.57203 217.37288,458.11335 221.72034,433.6589 221.72034,433.6589 258.13029,309.75636 192.91843,317.90784 Z"
     id="path6907"
     inkscape:connector-curvature="0" />
  <path
     style="fill:#000000;fill-opacity:1;stroke:#000000;stroke-width:1px;stroke-linecap:butt;stroke-linejoin:miter;stroke-opacity:1"
     d="M 295.08369,17.933262 C 295.08369,17.933262 288.5625,43.474576 302.69174,56.516949 302.69174,56.516949 317.36441,70.102754 302.69174,128.79343 302.69174,128.79343 295.08369,272.25953 405.94386,424.42055 405.94386,424.42055 452.1356,466.26483 503.21822,436.91949 503.21822,436.91949 465.48777,405.33878 453.22246,408.11759 432.54268,412.80276 421.70339,426.59428 380.94597,354.3178 380.94597,354.3178 317.36441,238.56674 321.16843,139.66208 321.16843,139.66208 319.53814,83.145127 342.36229,70.102754 384.20657,49.995763 295.08369,17.933262 295.08369,17.933262 Z"
     id="path6909"
     inkscape:connector-curvature="0"
     sodipodi:nodetypes="cccccscccc" />
</svg>
