<?xml version="1.0" encoding="UTF-8" standalone="no"?>
<!-- Created with Inkscape (http://www.inkscape.org/) -->

<svg
   xmlns:dc="http://purl.org/dc/elements/1.1/"
   xmlns:cc="http://creativecommons.org/ns#"
   xmlns:rdf="http://www.w3.org/1999/02/22-rdf-syntax-ns#"
   xmlns:svg="http://www.w3.org/2000/svg"
   xmlns="http://www.w3.org/2000/svg"
   xmlns:sodipodi="http://sodipodi.sourceforge.net/DTD/sodipodi-0.dtd"
   xmlns:inkscape="http://www.inkscape.org/namespaces/inkscape"
   version="1.1"
   id="svg1410"
   width="515"
   height="515"
   viewBox="0 0 515 515"
   sodipodi:docname="U+90E1.svg"
   inkscape:version="0.92.4 (5da689c313, 2019-01-14)">
  <metadata
     id="metadata1416">
    <rdf:RDF>
      <cc:Work
         rdf:about="">
        <dc:format>image/svg+xml</dc:format>
        <dc:type
           rdf:resource="http://purl.org/dc/dcmitype/StillImage" />
        <dc:title></dc:title>
      </cc:Work>
    </rdf:RDF>
  </metadata>
  <defs
     id="defs1414" />
  <sodipodi:namedview
     pagecolor="#ffffff"
     bordercolor="#666666"
     borderopacity="1"
     objecttolerance="10"
     gridtolerance="10"
     guidetolerance="10"
     inkscape:pageopacity="0"
     inkscape:pageshadow="2"
     inkscape:window-width="1920"
     inkscape:window-height="1017"
     id="namedview1412"
     showgrid="false"
     inkscape:zoom="1.2961336"
     inkscape:cx="437.88404"
     inkscape:cy="236.39003"
     inkscape:window-x="-8"
     inkscape:window-y="-8"
     inkscape:window-maximized="1"
     inkscape:current-layer="svg1410" />
  <path
     style="fill:#000000;stroke:#000000;stroke-width:1px;stroke-linecap:butt;stroke-linejoin:miter;stroke-opacity:1;fill-opacity:1"
     d="M 243.86123,99.835805 C 225.3125,109.11017 219.85699,198.03496 219.85699,198.03496 212.21928,235.13241 205.67267,204.03602 205.67267,204.03602 L 205.12712,188.21504 C 212.76483,180.03178 216.03814,101.47246 216.03814,101.47246 209.49153,84.560381 168.57521,108.01907 168.57521,108.01907 136.93326,118.93008 127.11335,97.653601 127.11335,97.653601 127.11335,97.653601 148.93538,83.469279 222.0392,83.469279 222.0392,83.469279 261.31886,79.104873 243.86123,99.835805 Z"
     id="path1969"
     inkscape:connector-curvature="0" />
  <path
     style="fill:#000000;stroke:#000000;stroke-width:1px;stroke-linecap:butt;stroke-linejoin:miter;stroke-opacity:1;fill-opacity:1"
     d="M 52.918432,169.12076 C 52.918432,169.12076 62.738348,192.0339 74.194915,194.2161 74.194915,194.2161 81.832627,204.58157 102.56356,189.30614 102.56356,189.30614 190.9428,146.20763 241.67903,148.38983 241.67903,148.38983 271.13877,138.02436 244.95233,130.38665 244.95233,130.38665 76.377118,175.66737 52.918432,169.12076 Z"
     id="path1971"
     inkscape:connector-curvature="0" />
  <path
     style="fill:#000000;stroke:#000000;stroke-width:1px;stroke-linecap:butt;stroke-linejoin:miter;stroke-opacity:1;fill-opacity:1"
     d="M 135.01695,133.86645 C 135.01695,133.86645 160.47728,166.27052 158.16271,173.98577 158.16271,173.98577 61.722033,409.30102 3.857627,394.64204 3.857627,394.64204 14.658983,413.15865 23.917288,406.98644 23.917288,406.98644 53.235253,439.39051 124.98712,275.0556 L 171.27864,186.33018 C 171.27864,186.33018 179.76543,130.78035 135.01695,133.86645 Z"
     id="path1977"
     inkscape:connector-curvature="0" />
  <path
     style="fill:#000000;stroke:#000000;stroke-width:1px;stroke-linecap:butt;stroke-linejoin:miter;stroke-opacity:1;fill-opacity:1"
     d="M 30.861016,254.22441 C 30.861016,254.22441 44.748474,283.54238 70.208812,272.74102 70.208812,272.74102 77.097038,249.08754 219.85699,198.03496 219.85699,198.03496 269.26237,190.95933 231.45762,184.0156 231.45762,184.0156 49.377625,231.07865 30.861016,254.22441 Z"
     id="path1981"
     inkscape:connector-curvature="0" />
  <path
     style="fill:#000000;stroke:#000000;stroke-width:1px;stroke-linecap:butt;stroke-linejoin:miter;stroke-opacity:1;fill-opacity:1"
     d="M 124.21559,264.25424 C 124.21559,264.25424 155.84813,261.16814 162.79186,373.03932 162.79186,373.03932 179.76542,423.96 182.08,372.2678 182.08,372.2678 170.50711,254.99593 124.21559,264.25424 Z"
     id="path1983"
     inkscape:connector-curvature="0" />
  <path
     style="fill:#000000;stroke:#000000;stroke-width:1px;stroke-linecap:butt;stroke-linejoin:miter;stroke-opacity:1;fill-opacity:1"
     d="M 157.39118,271.9695 C 157.39118,271.9695 168.96406,289.71458 181.30847,286.62848 L 213.71254,272.74102 C 213.71254,272.74102 243.0305,259.62509 228.37152,297.42983 228.37152,297.42983 224.51389,315.17492 202.91118,318.26102 L 148.13288,328.29085 C 148.13288,328.29085 159.70576,352.20814 189.02372,340.63526 189.02372,340.63526 239.17288,328.29085 249.97423,333.69153 249.97423,333.69153 272.34847,329.06238 247.65966,317.4895 247.65966,317.4895 233.00067,322.11865 250.74576,272.74102 250.74576,272.74102 288.5505,243.42306 254.60338,241.88001 229.91456,227.22103 157.39118,271.9695 157.39118,271.9695 Z"
     id="path1985"
     inkscape:connector-curvature="0" />
  <path
     style="fill:#000000;stroke:#000000;stroke-width:1px;stroke-linecap:butt;stroke-linejoin:miter;stroke-opacity:1;fill-opacity:1"
     d="M 290.09355,140.81018 C 290.09355,140.81018 330.9844,184.78713 320.95457,205.61831 L 322.49762,470.25153 C 322.49762,470.25153 290.09355,460.99322 317.86847,498.02644 317.86847,498.02644 331.75593,521.94373 334.84203,497.25492 L 336.38508,180.15797 C 336.38508,180.15797 344.10033,143.89628 290.09355,140.81018 Z"
     id="path1987"
     inkscape:connector-curvature="0" />
  <path
     style="fill:#000000;stroke:#000000;stroke-width:1px;stroke-linecap:butt;stroke-linejoin:miter;stroke-opacity:1;fill-opacity:1"
     d="M 426.00781 83.144531 C 420.98017 83.034008 414.92473 85.440223 407.75195 92.203125 C 407.75195 92.203125 368.01775 126.92279 309.76758 128.08008 C 309.76758 128.08008 323.65543 150.06935 339.08594 149.68359 C 339.08594 149.68359 359.14475 151.22519 373.41797 140.42383 C 373.41797 140.42383 401.19301 119.97993 371.10352 185.17383 C 371.10352 185.17383 348.7299 227.2207 377.66211 227.2207 C 377.66211 227.2207 401.57892 229.53577 405.05078 273.12695 C 405.05078 273.12695 407.75028 287.01413 384.21875 296.6582 C 384.21875 296.6582 351.42912 292.80055 380.36133 315.56055 C 380.36133 315.56055 406.59334 330.21941 414.30859 336.00586 C 414.30859 336.00586 428.19606 350.28004 432.43945 336.39258 C 432.43945 336.39258 452.88482 293.95891 415.08008 240.33789 C 415.08008 240.33789 407.75032 228.76333 383.44727 216.80469 C 383.44727 216.80469 372.26127 219.50656 380.74805 206.39062 C 380.74805 206.39062 419.3246 132.3241 430.51172 134.63867 C 430.51172 134.63867 435.52689 127.69344 444.01367 126.15039 C 444.01367 126.15039 455.97124 121.52247 445.94141 103.00586 C 445.94141 103.00586 439.90778 83.450096 426.00781 83.144531 z "
     id="path1993" />
</svg>
