<?xml version="1.0" encoding="UTF-8" standalone="no"?>
<!-- Created with Inkscape (http://www.inkscape.org/) -->

<svg
   xmlns:dc="http://purl.org/dc/elements/1.1/"
   xmlns:cc="http://creativecommons.org/ns#"
   xmlns:rdf="http://www.w3.org/1999/02/22-rdf-syntax-ns#"
   xmlns:svg="http://www.w3.org/2000/svg"
   xmlns="http://www.w3.org/2000/svg"
   xmlns:sodipodi="http://sodipodi.sourceforge.net/DTD/sodipodi-0.dtd"
   xmlns:inkscape="http://www.inkscape.org/namespaces/inkscape"
   version="1.1"
   id="svg6588"
   width="511"
   height="511"
   viewBox="0 0 511 511"
   sodipodi:docname="U+9580.svg"
   inkscape:version="0.92.4 (5da689c313, 2019-01-14)">
  <metadata
     id="metadata6594">
    <rdf:RDF>
      <cc:Work
         rdf:about="">
        <dc:format>image/svg+xml</dc:format>
        <dc:type
           rdf:resource="http://purl.org/dc/dcmitype/StillImage" />
        <dc:title></dc:title>
      </cc:Work>
    </rdf:RDF>
  </metadata>
  <defs
     id="defs6592" />
  <sodipodi:namedview
     pagecolor="#ffffff"
     bordercolor="#666666"
     borderopacity="1"
     objecttolerance="10"
     gridtolerance="10"
     guidetolerance="10"
     inkscape:pageopacity="0"
     inkscape:pageshadow="2"
     inkscape:window-width="1920"
     inkscape:window-height="1017"
     id="namedview6590"
     showgrid="false"
     inkscape:zoom="1.3062795"
     inkscape:cx="363.66804"
     inkscape:cy="332.90991"
     inkscape:window-x="-8"
     inkscape:window-y="-8"
     inkscape:window-maximized="1"
     inkscape:current-layer="svg6588" />
  <path
     style="fill:#000000;stroke:#000000;stroke-width:1px;stroke-linecap:butt;stroke-linejoin:miter;stroke-opacity:1;fill-opacity:1"
     d="M 99.519287,382.39046 C 134.7338,231.58046 111.76781,116.75052 111.76781,116.75052 111.76781,116.75052 149.27893,118.28158 141.6236,167.27569 141.6236,167.27569 111.00228,390.04579 113.29888,412.24625 113.29888,412.24625 114.82995,456.64716 96.457155,411.48071 88.801825,399.99771 99.519287,382.39046 99.519287,382.39046 Z"
     id="path7141"
     inkscape:connector-curvature="0" />
  <path
     style="fill:#000000;stroke:#000000;stroke-width:1px;stroke-linecap:butt;stroke-linejoin:miter;stroke-opacity:1;fill-opacity:1"
     d="M 117.89208,89.956862 C 117.89208,89.956862 135.49934,115.98498 154.63766,107.56412 L 177.60365,96.081126 C 177.60365,96.081126 206.6939,76.942802 193.67984,119.81265 193.67984,119.81265 193.67984,128.99904 164.58959,135.88884 164.58959,135.88884 124.78188,143.54417 179.90025,155.7927 179.90025,155.7927 198.27304,148.9029 189.85218,176.46209 189.85218,176.46209 183.72791,189.47615 160.76193,195.60041 160.76193,195.60041 166.88619,230.81493 200.56964,209.38001 L 241.90842,177.22762 C 241.90842,177.22762 261.81228,166.51016 262.57781,139.71651 L 218.94243,167.27569 C 218.94243,167.27569 204.39731,177.99315 210.52157,138.18544 210.52157,138.18544 212.05263,93.018994 227.36329,89.956862 227.36329,89.956862 254.15695,68.521939 203.63177,61.632142 203.63177,61.632142 142.38914,70.818537 117.89208,89.956862 Z"
     id="path7143"
     inkscape:connector-curvature="0" />
  <path
     style="fill:#000000;stroke:#000000;stroke-width:1px;stroke-linecap:butt;stroke-linejoin:miter;stroke-opacity:1;fill-opacity:1"
     d="M 313.86852,177.22762 C 314.63405,95.315593 281.71614,85.363664 281.71614,85.363664 281.71614,85.363664 336.06898,69.287472 328.41365,139.71651 L 329.17918,171.86889 Z"
     id="path7145"
     inkscape:connector-curvature="0" />
  <path
     style="fill:#000000;stroke:#000000;stroke-width:1px;stroke-linecap:butt;stroke-linejoin:miter;stroke-opacity:1;fill-opacity:1"
     d="M 279.41954,182.58635 C 279.41954,182.58635 297.79233,218.5664 333.77238,200.19361 333.77238,200.19361 354.44177,183.35189 386.59415,187.17955 386.59415,187.17955 425.63634,168.80676 388.12522,163.44803 388.12522,163.44803 280.95061,170.33782 279.41954,182.58635 Z"
     id="path7147"
     inkscape:connector-curvature="0" />
  <path
     style="fill:#000000;stroke:#000000;stroke-width:1px;stroke-linecap:butt;stroke-linejoin:miter;stroke-opacity:1;fill-opacity:1"
     d="M 334.53791,118.28158 367.45583,104.50199 C 367.45583,104.50199 400.37375,84.598131 388.12522,118.28158 375.87669,151.96503 334.53791,118.28158 334.53791,118.28158 Z"
     id="path7149"
     inkscape:connector-curvature="0" />
  <path
     style="fill:#000000;stroke:#000000;stroke-width:1px;stroke-linecap:butt;stroke-linejoin:miter;stroke-opacity:1;fill-opacity:1"
     d="M 298.55786,63.928741 C 298.55786,63.928741 321.52385,92.253461 346.02091,82.301532 346.02091,82.301532 367.45583,60.866609 390.42182,60.101076 390.42182,60.101076 423.33974,38.666153 417.21547,112.92285 L 420.2776,388.51472 C 420.2776,388.51472 417.21547,414.54284 378.17329,391.57686 L 410.32568,446.69523 C 410.32568,446.69523 428.69847,480.37868 438.6504,437.50883 438.6504,437.50883 441.71253,410.71518 437.11933,390.04579 L 426.40187,96.081126 C 426.40187,96.081126 427.93293,76.942802 444.00913,63.928741 444.00913,63.928741 443.24359,39.431686 412.62227,15.700163 412.62227,15.700163 408.02908,39.431686 368.9869,40.962752 368.9869,40.962752 297.02679,45.55595 298.55786,63.928741 Z"
     id="path7151"
     inkscape:connector-curvature="0" />
</svg>
