<?xml version="1.0" encoding="UTF-8" standalone="no"?>
<!-- Created with Inkscape (http://www.inkscape.org/) -->

<svg
   xmlns:dc="http://purl.org/dc/elements/1.1/"
   xmlns:cc="http://creativecommons.org/ns#"
   xmlns:rdf="http://www.w3.org/1999/02/22-rdf-syntax-ns#"
   xmlns:svg="http://www.w3.org/2000/svg"
   xmlns="http://www.w3.org/2000/svg"
   xmlns:sodipodi="http://sodipodi.sourceforge.net/DTD/sodipodi-0.dtd"
   xmlns:inkscape="http://www.inkscape.org/namespaces/inkscape"
   version="1.1"
   id="svg2593"
   width="511"
   height="513"
   viewBox="0 0 511 513"
   sodipodi:docname="U+96DE.svg"
   inkscape:version="0.92.4 (5da689c313, 2019-01-14)">
  <metadata
     id="metadata2599">
    <rdf:RDF>
      <cc:Work
         rdf:about="">
        <dc:format>image/svg+xml</dc:format>
        <dc:type
           rdf:resource="http://purl.org/dc/dcmitype/StillImage" />
        <dc:title></dc:title>
      </cc:Work>
    </rdf:RDF>
  </metadata>
  <defs
     id="defs2597" />
  <sodipodi:namedview
     pagecolor="#ffffff"
     bordercolor="#666666"
     borderopacity="1"
     objecttolerance="10"
     gridtolerance="10"
     guidetolerance="10"
     inkscape:pageopacity="0"
     inkscape:pageshadow="2"
     inkscape:window-width="1920"
     inkscape:window-height="1017"
     id="namedview2595"
     showgrid="false"
     inkscape:zoom="1.8401559"
     inkscape:cx="333.76629"
     inkscape:cy="255.68254"
     inkscape:window-x="-8"
     inkscape:window-y="-8"
     inkscape:window-maximized="1"
     inkscape:current-layer="svg2593" />
  <path
     style="fill:#000000;stroke:#000000;stroke-width:1px;stroke-linecap:butt;stroke-linejoin:miter;stroke-opacity:1;fill-opacity:1"
     d="M 221.72034,46.191737 92.926907,93.470339 C 92.926907,93.470339 126.07627,110.86017 188.57097,80.971398 188.57097,80.971398 204.87394,59.23411 219.54661,64.125 219.54661,64.125 263.02119,71.73305 245.63136,47.278601 245.63136,47.278601 232.04555,29.888771 221.72034,46.191737 Z"
     id="path3146"
     inkscape:connector-curvature="0" />
  <path
     style="fill:#000000;stroke:#000000;stroke-width:1px;stroke-linecap:butt;stroke-linejoin:miter;stroke-opacity:1;fill-opacity:1"
     d="M 78.79767,157.59534 C 78.79767,157.59534 61.407839,193.46186 74.450212,201.61335 125.53284,169.00742 78.79767,157.59534 78.79767,157.59534 Z"
     id="path3148"
     inkscape:connector-curvature="0" />
  <path
     style="fill:#000000;stroke:#000000;stroke-width:1px;stroke-linecap:butt;stroke-linejoin:miter;stroke-opacity:1;fill-opacity:1"
     d="M 229.87182,108.14301 C 229.87182,108.14301 240.19703,124.44597 226.61123,130.96716 213.02542,137.48835 266.28178,133.68432 266.28178,133.68432 266.28178,133.68432 264.65148,101.62182 229.87182,108.14301 Z"
     id="path3150"
     inkscape:connector-curvature="0" />
  <path
     style="fill:#000000;stroke:#000000;stroke-width:1px;stroke-linecap:butt;stroke-linejoin:miter;stroke-opacity:1;fill-opacity:1"
     d="M 104.33898,223.35064 C 181.50636,174.44174 161.9428,116.29449 161.9428,116.29449 161.9428,116.29449 207.5911,135.31462 171.18114,171.72458 L 138.03178,208.13453 C 138.03178,208.13453 122.27225,225.52436 149.98729,211.39513 L 183.13665,199.43962 C 183.13665,199.43962 198.35275,184.76695 197.80932,176.61547 197.80932,176.61547 238.02331,173.8983 210.30826,196.72246 L 149.98729,253.23941 C 149.98729,253.23941 116.83792,274.43326 183.68008,249.97881 L 199.98305,246.17479 C 199.98305,246.17479 207.5911,245.63136 196.17903,228.24153 196.17903,228.24153 198.35275,214.65572 218.45975,233.67585 218.45975,233.67585 244.54449,252.15254 211.39513,249.43538 L 118.46822,285.30191 C 118.46822,285.30191 76.080509,295.08369 107.05614,264.10805 107.05614,264.10805 144.00953,245.63136 171.72458,219.00318 171.72458,219.00318 184.22352,197.26589 138.03178,227.15466 138.03178,227.15466 83.688553,261.93433 104.33898,223.35064 Z"
     id="path3152"
     inkscape:connector-curvature="0" />
  <path
     style="fill:#000000;stroke:#000000;stroke-width:1px;stroke-linecap:butt;stroke-linejoin:miter;stroke-opacity:1;fill-opacity:1"
     d="M 2.717161,335.8411 C 4.8908898,335.29767 234.76271,277.69386 234.76271,277.69386 234.76271,277.69386 263.56462,273.3464 282.58475,286.38877 282.58475,286.38877 282.04131,297.80085 258.67373,297.25742 258.67373,297.25742 103.79555,294.54025 33.149364,346.16631 17.933262,363.0127 2.717161,335.8411 2.717161,335.8411 Z"
     id="path3154"
     inkscape:connector-curvature="0" />
  <path
     style="fill:#000000;stroke:#000000;stroke-width:1px;stroke-linecap:butt;stroke-linejoin:miter;stroke-opacity:1;fill-opacity:1"
     d="M 147.81356,287.47564 C 147.81356,287.47564 145.63983,300.51801 152.70445,311.38665 152.70445,311.38665 146.7267,367.36017 117.38136,391.81462 L 103.25212,400.50953 C 103.25212,400.50953 128.25,416.26907 140.20551,398.87924 140.20551,398.87924 166.83369,372.79449 170.63771,321.16843 L 170.63771,297.80085 C 170.63771,297.80085 164.11653,280.95446 147.81356,287.47564 Z"
     id="path3156"
     inkscape:connector-curvature="0" />
  <path
     style="fill:#000000;stroke:#000000;stroke-width:1px;stroke-linecap:butt;stroke-linejoin:miter;stroke-opacity:1;fill-opacity:1"
     d="M 190.20127,318.9947 C 190.20127,318.9947 205.41737,377.14195 221.72034,387.46716 221.72034,387.46716 238.02331,411.92161 236.39301,383.66314 236.39301,383.66314 244.54449,339.64512 190.20127,318.9947 Z"
     id="path3160"
     inkscape:connector-curvature="0" />
  <path
     style="fill:#000000;stroke:#000000;stroke-width:1px;stroke-linecap:butt;stroke-linejoin:miter;stroke-opacity:1;fill-opacity:1"
     d="M 310.29979,157.05191 C 379.85911,81.51483 361.38242,71.73305 361.38242,71.73305 350.51377,53.799788 336.38453,46.735169 336.38453,46.735169 314.10381,28.801906 326.05932,49.995762 326.05932,49.995762 326.05932,49.995762 351.60064,69.015889 324.42903,105.42585 L 294.54025,146.72669 C 294.54025,146.72669 262.47775,153.24788 295.62712,174.44174 295.62712,174.44174 320.08157,158.13877 299.43114,394.53178 299.43114,394.53178 298.88771,407.03072 290.73623,404.85699 290.73623,404.85699 264.65148,396.70551 310.29979,486.91525 310.29979,486.91525 318.9947,495.61017 317.90784,478.22034 317.90784,478.22034 300.51801,431.48517 338.55826,438.00636 338.55826,438.00636 349.97034,443.98411 341.27542,429.31144 341.27542,429.31144 335.8411,404.31356 319.53814,414.63877 319.53814,414.63877 310.84322,422.79025 313.56038,400.50953 313.56038,400.50953 315.19068,187.48411 328.23305,193.46186 328.23305,193.46186 336.38453,178.78919 309.21292,172.81144 309.21292,172.81144 294.54026,170.63772 310.29979,157.05191 Z"
     id="path3162"
     inkscape:connector-curvature="0" />
  <path
     style="fill:#000000;stroke:#000000;stroke-width:1px;stroke-linecap:butt;stroke-linejoin:miter;stroke-opacity:1;fill-opacity:1"
     d="M 355.94809,152.16102 C 355.94809,152.16102 373.88136,180.41949 387.46716,173.8983 430.3983,132.05402 355.94809,152.16102 355.94809,152.16102 Z"
     id="path3164"
     inkscape:connector-curvature="0" />
  <path
     style="fill:#000000;stroke:#000000;stroke-width:1px;stroke-linecap:butt;stroke-linejoin:miter;stroke-opacity:1;fill-opacity:1"
     d="M 317.90784,211.93856 C 317.90784,211.93856 330.95021,227.69809 346.16631,220.09004 346.16631,220.09004 416.8125,183.68008 455.39619,198.35275 455.39619,198.35275 497.7839,196.17903 464.0911,178.78919 464.0911,178.78919 438.54979,166.29025 428.22458,180.96292 428.22458,180.96292 317.90784,202.15678 317.90784,211.93856 Z"
     id="path3166"
     inkscape:connector-curvature="0" />
  <path
     style="fill:#000000;stroke:#000000;stroke-width:1px;stroke-linecap:butt;stroke-linejoin:miter;stroke-opacity:1;fill-opacity:1"
     d="M 332.03708,271.17267 C 332.03708,271.17267 343.44915,283.67161 359.75212,278.78072 359.75212,278.78072 427.68114,249.43538 442.35381,251.60911 442.35381,251.60911 457.56992,243.45763 421.70339,242.37076 421.70339,242.37076 326.60276,261.39089 332.03708,271.17267 Z"
     id="path3168"
     inkscape:connector-curvature="0" />
  <path
     style="fill:#000000;stroke:#000000;stroke-width:1px;stroke-linecap:butt;stroke-linejoin:miter;stroke-opacity:1;fill-opacity:1"
     d="M 347.79661,318.45127 C 347.79661,318.45127 353.23093,339.64513 418.98623,312.47352 418.98623,312.47352 465.7214,298.34428 423.33369,297.25742 423.33369,297.25742 346.16631,301.06144 347.79661,318.45127 Z"
     id="path3172"
     inkscape:connector-curvature="0" />
  <path
     style="fill:#000000;stroke:#000000;stroke-width:1px;stroke-linecap:butt;stroke-linejoin:miter;stroke-opacity:1;fill-opacity:1"
     d="M 329.31992,367.9036 C 329.31992,367.9036 335.8411,390.18432 365.18644,373.33792 365.18644,373.33792 433.11547,344.53602 478.22034,377.14195 478.22034,377.14195 499.95763,386.92373 485.28496,364.64301 485.28496,364.64301 472.78602,338.55826 423.87712,353.23093 423.87712,353.23093 339.1017,348.88347 329.31992,367.9036 Z"
     id="path3174"
     inkscape:connector-curvature="0" />
  <path
     style="fill:#000000;stroke:#000000;stroke-width:1px;stroke-linecap:butt;stroke-linejoin:miter;stroke-opacity:1;fill-opacity:1"
     d="M 377.68538,352.6875 C 401.5964,260.30403 356.49153,224.4375 356.49153,224.4375 356.49153,224.4375 425.50742,223.35064 400.50953,268.45551 400.50953,268.45551 393.98835,263.56462 387.46716,356.49153 Z"
     id="path3176"
     inkscape:connector-curvature="0" />
</svg>
