<?xml version="1.0" encoding="UTF-8" standalone="no"?>
<!-- Created with Inkscape (http://www.inkscape.org/) -->

<svg
   xmlns:dc="http://purl.org/dc/elements/1.1/"
   xmlns:cc="http://creativecommons.org/ns#"
   xmlns:rdf="http://www.w3.org/1999/02/22-rdf-syntax-ns#"
   xmlns:svg="http://www.w3.org/2000/svg"
   xmlns="http://www.w3.org/2000/svg"
   xmlns:sodipodi="http://sodipodi.sourceforge.net/DTD/sodipodi-0.dtd"
   xmlns:inkscape="http://www.inkscape.org/namespaces/inkscape"
   version="1.1"
   id="svg5444"
   width="511"
   height="513"
   viewBox="0 0 511 513"
   sodipodi:docname="U+96F2.svg"
   inkscape:version="0.92.4 (5da689c313, 2019-01-14)">
  <metadata
     id="metadata5450">
    <rdf:RDF>
      <cc:Work
         rdf:about="">
        <dc:format>image/svg+xml</dc:format>
        <dc:type
           rdf:resource="http://purl.org/dc/dcmitype/StillImage" />
        <dc:title></dc:title>
      </cc:Work>
    </rdf:RDF>
  </metadata>
  <defs
     id="defs5448" />
  <sodipodi:namedview
     pagecolor="#ffffff"
     bordercolor="#666666"
     borderopacity="1"
     objecttolerance="10"
     gridtolerance="10"
     guidetolerance="10"
     inkscape:pageopacity="0"
     inkscape:pageshadow="2"
     inkscape:window-width="1920"
     inkscape:window-height="1017"
     id="namedview5446"
     showgrid="false"
     inkscape:zoom="1.8401559"
     inkscape:cx="222.79347"
     inkscape:cy="270.53894"
     inkscape:window-x="-8"
     inkscape:window-y="-8"
     inkscape:window-maximized="1"
     inkscape:current-layer="svg5444" />
  <path
     style="fill:#000000;stroke:#000000;stroke-width:1px;stroke-linecap:butt;stroke-linejoin:miter;stroke-opacity:1;fill-opacity:1"
     d="M 182.04979,148.90042 C 182.04979,148.90042 204.87394,189.65784 245.08792,170.09428 245.08792,170.09428 265.19492,159.76907 298.34428,156.50847 298.34428,156.50847 340.18856,140.74894 293.99682,128.25 293.99682,128.25 194.54873,130.42372 182.04979,148.90042 Z"
     id="path5997"
     inkscape:connector-curvature="0" />
  <path
     style="fill:#000000;stroke:#000000;stroke-width:1px;stroke-linecap:butt;stroke-linejoin:miter;stroke-opacity:1;fill-opacity:1"
     d="M 79.884534,262.47775 C 79.884534,262.47775 120.09852,288.01907 153.79131,261.93432 153.79131,261.93432 268.45551,204.87394 382.57627,221.72034 382.57627,221.72034 470.61229,226.0678 413.55191,201.06991 413.55191,201.06991 365.18644,179.33263 258.1303,214.11229 258.1303,214.11229 121.18538,240.74046 79.884534,262.47775 Z"
     id="path5999"
     inkscape:connector-curvature="0" />
  <path
     style="fill:#000000;stroke:#000000;stroke-width:1px;stroke-linecap:butt;stroke-linejoin:miter;stroke-opacity:1;fill-opacity:1"
     d="M 194.0053,337.4714 C 223.89407,288.01907 207.04767,234.76271 207.04767,234.76271 L 244.54449,248.34852 C 244.54449,248.34852 264.65148,258.67373 246.71822,281.49788 L 213.56886,348.34004 Z"
     id="path6001"
     inkscape:connector-curvature="0" />
  <path
     style="fill:#000000;stroke:#000000;stroke-width:1px;stroke-linecap:butt;stroke-linejoin:miter;stroke-opacity:1;fill-opacity:1"
     d="M 311.38665,324.97246 C 291.82309,324.97246 211.39513,362.46928 211.39513,362.46928 188.57097,383.1197 165.74682,337.4714 165.74682,337.4714 165.74682,337.4714 211.39513,340.73199 228.78496,330.95021 L 318.45127,304.86547 Z"
     id="path6003"
     inkscape:connector-curvature="0" />
  <path
     style="fill:#000000;stroke:#000000;stroke-width:1px;stroke-linecap:butt;stroke-linejoin:miter;stroke-opacity:1;fill-opacity:1"
     d="M 286.38877,267.36864 C 286.38877,267.36864 307.58263,374.42479 340.18856,354.86123 364.09958,279.86759 286.38877,267.36864 286.38877,267.36864 Z"
     id="path6007"
     inkscape:connector-curvature="0" />
</svg>
