<?xml version="1.0" encoding="UTF-8" standalone="no"?>
<!-- Created with Inkscape (http://www.inkscape.org/) -->

<svg
   xmlns:dc="http://purl.org/dc/elements/1.1/"
   xmlns:cc="http://creativecommons.org/ns#"
   xmlns:rdf="http://www.w3.org/1999/02/22-rdf-syntax-ns#"
   xmlns:svg="http://www.w3.org/2000/svg"
   xmlns="http://www.w3.org/2000/svg"
   xmlns:sodipodi="http://sodipodi.sourceforge.net/DTD/sodipodi-0.dtd"
   xmlns:inkscape="http://www.inkscape.org/namespaces/inkscape"
   version="1.1"
   id="svg1996"
   width="509"
   height="511"
   viewBox="0 0 509 511"
   sodipodi:docname="U+96C1.svg"
   inkscape:version="0.92.4 (5da689c313, 2019-01-14)">
  <metadata
     id="metadata2002">
    <rdf:RDF>
      <cc:Work
         rdf:about="">
        <dc:format>image/svg+xml</dc:format>
        <dc:type
           rdf:resource="http://purl.org/dc/dcmitype/StillImage" />
        <dc:title></dc:title>
      </cc:Work>
    </rdf:RDF>
  </metadata>
  <defs
     id="defs2000" />
  <sodipodi:namedview
     pagecolor="#ffffff"
     bordercolor="#666666"
     borderopacity="1"
     objecttolerance="10"
     gridtolerance="10"
     guidetolerance="10"
     inkscape:pageopacity="0"
     inkscape:pageshadow="2"
     inkscape:window-width="1920"
     inkscape:window-height="1017"
     id="namedview1998"
     showgrid="false"
     inkscape:zoom="0.92367906"
     inkscape:cx="132.79819"
     inkscape:cy="167.23019"
     inkscape:window-x="-8"
     inkscape:window-y="-8"
     inkscape:window-maximized="1"
     inkscape:current-layer="svg1996" />
  <path
     style="fill:#000000;stroke:#000000;stroke-width:1px;stroke-linecap:butt;stroke-linejoin:miter;stroke-opacity:1;fill-opacity:1"
     d="M 189.08665,23.355493 C 189.08665,23.355493 198.27304,40.197219 218.94243,43.259351 218.94243,43.259351 216.64583,53.211279 284.01273,24.886559 284.01273,24.886559 303.15106,20.293361 284.77827,13.403564 284.77827,13.403564 192.14879,9.5758992 189.08665,23.355493 Z"
     id="path2549"
     inkscape:connector-curvature="0" />
  <path
     style="fill:#000000;stroke:#000000;stroke-width:1px;stroke-linecap:butt;stroke-linejoin:miter;stroke-opacity:1;fill-opacity:1"
     d="M 88.801825,115.98498 C 88.801825,115.98498 107.55738,132.82671 120.57144,128.23351 120.57144,128.23351 127.46124,130.14734 151.57553,118.28158 151.57553,118.28158 281.33337,63.928741 421.4259,77.708334 421.4259,77.708334 485.73067,80.004933 424.48804,57.42171 424.48804,57.42171 405.34971,52.828513 385.82862,60.866609 385.82862,60.866609 97.222687,101.43985 88.801825,115.98498 Z"
     id="path2557"
     inkscape:connector-curvature="0" />
  <path
     style="fill:#000000;stroke:#000000;stroke-width:1px;stroke-linecap:butt;stroke-linejoin:miter;stroke-opacity:1;fill-opacity:1"
     d="M 103.9322,149.94386 C 103.9322,149.94386 125.04343,171.5964 112.05191,205.15784 112.05191,205.15784 106.63877,228.43432 100.68432,293.93326 100.68432,293.93326 79.03178,441.71186 3.2478814,503.42161 3.2478814,503.42161 18.404661,511.54131 29.772246,497.46716 29.772246,497.46716 73.618644,459.0339 109.34534,347.5233 109.34534,347.5233 115.8411,254.95869 129.91525,213.81886 129.91525,213.81886 159.14618,155.89831 103.9322,149.94386 Z"
     id="path2559"
     inkscape:connector-curvature="0" />
  <path
     style="fill:#000000;stroke:#000000;stroke-width:1px;stroke-linecap:butt;stroke-linejoin:miter;stroke-opacity:1;fill-opacity:1"
     d="M 193.79025,127.20869 C 193.79025,127.20869 211.11229,160.22881 160.22881,217.60805 160.22881,217.60805 147.23729,226.26907 151.5678,238.17797 151.5678,238.17797 149.40254,254.41737 167.8072,234.38877 167.8072,234.38877 198.66208,181.88136 208.40572,180.79873 208.40572,180.79873 239.26058,162.93539 193.79025,127.20869 Z"
     id="path2561"
     inkscape:connector-curvature="0" />
  <path
     style="fill:#000000;stroke:#000000;stroke-width:1px;stroke-linecap:butt;stroke-linejoin:miter;stroke-opacity:1;fill-opacity:1"
     d="M 195.95551,217.60805 184.58792,319.91631 C 184.58792,319.91631 184.04661,356.72564 201.36864,322.62288 L 209.48835,242.50847 C 209.48835,242.50847 211.6536,214.90148 195.95551,217.60805 Z"
     id="path2563"
     inkscape:connector-curvature="0" />
  <path
     style="fill:#000000;stroke:#000000;stroke-width:1px;stroke-linecap:butt;stroke-linejoin:miter;stroke-opacity:1;fill-opacity:1"
     d="M 153.73305,401.65466 C 153.73305,401.65466 134.78708,431.42691 166.72458,443.87712 166.72458,443.87712 199.20339,428.17902 153.73305,401.65466 Z"
     id="path2565"
     inkscape:connector-curvature="0" />
  <path
     style="fill:#000000;stroke:#000000;stroke-width:1px;stroke-linecap:butt;stroke-linejoin:miter;stroke-opacity:1;fill-opacity:1"
     d="M 212.73623,396.24153 C 212.73623,396.24153 204.07521,431.42691 224.64513,422.22458 224.64513,422.22458 250.62818,408.69175 212.73623,396.24153 Z"
     id="path2567"
     inkscape:connector-curvature="0" />
  <path
     style="fill:#000000;stroke:#000000;stroke-width:1px;stroke-linecap:butt;stroke-linejoin:miter;stroke-opacity:1;fill-opacity:1"
     d="M 265.78496,379.4608 C 265.78496,379.4608 277.69386,402.19597 291.2267,400.57203 304.21823,362.68008 265.78496,379.4608 265.78496,379.4608 Z"
     id="path2571"
     inkscape:connector-curvature="0" />
  <path
     style="fill:#000000;stroke:#000000;stroke-width:1px;stroke-linecap:butt;stroke-linejoin:miter;stroke-opacity:1;fill-opacity:1"
     d="M 321.54025,376.21292 C 321.54025,376.21292 327.4947,402.73729 345.89936,400.57203 369.17584,364.30402 321.54025,376.21292 321.54025,376.21292 Z"
     id="path2573"
     inkscape:connector-curvature="0" />
  <path
     style="fill:#000000;stroke:#000000;stroke-width:1px;stroke-linecap:butt;stroke-linejoin:miter;stroke-opacity:1;fill-opacity:1"
     d="M 170.51377,364.30403 C 170.51377,364.30403 195.4142,391.91102 231.6822,369.71716 231.6822,369.71716 341.56886,317.75106 412.48093,333.99047 412.48093,333.99047 473.10805,333.44915 404.90254,415.1875 404.90254,415.1875 396.78284,428.17903 367.55191,420.05932 367.55191,420.05932 337.23835,400.57203 361.05614,446.58369 361.05614,446.58369 372.96504,472.02542 396.24153,454.70339 396.24153,454.70339 430.88559,420.05932 453.62076,365.38665 453.62076,365.38665 503.96292,296.09852 356.18432,325.87076 356.18432,325.87076 179.17479,333.99048 170.51377,364.30403 Z"
     id="path2577"
     inkscape:connector-curvature="0" />
  <path
     style="fill:#000000;stroke:#000000;stroke-width:1px;stroke-linecap:butt;stroke-linejoin:miter;stroke-opacity:1;fill-opacity:1"
     d="M 267.95021,184.04661 C 303.13559,131.53919 289.06144,110.42797 289.06144,110.42797 289.06144,110.42797 323.70551,113.67585 305.84216,142.90678 L 264.70233,200.28602 Z"
     id="path2579"
     inkscape:connector-curvature="0" />
  <path
     style="fill:#000000;stroke:#000000;stroke-width:1px;stroke-linecap:butt;stroke-linejoin:miter;stroke-opacity:1;fill-opacity:1"
     d="M 268.49153,297.72246 C 263.07839,345.35805 248.46292,292.30932 248.46292,292.30932 L 258.20657,202.99258 C 232.22352,162.39407 243.04979,160.77013 243.04979,160.77013 243.04979,160.77013 280.94174,176.46822 270.65678,206.24047 270.65678,206.24047 265.24365,289.06145 268.49153,297.72246 Z"
     id="path2581"
     inkscape:connector-curvature="0" />
  <path
     style="fill:#000000;stroke:#000000;stroke-width:1px;stroke-linecap:butt;stroke-linejoin:miter;stroke-opacity:1;fill-opacity:1"
     d="M 306.92479,137.49364 C 306.92479,137.49364 320.45763,143.98941 349.14725,130.45657 349.14725,130.45657 354.56038,124.50212 363.2214,131.53919 L 376.75424,142.36547 C 376.75424,142.36547 394.61759,148.31991 376.21292,170.51377 376.21292,170.51377 346.44068,264.16102 356.18432,278.77648 L 349.14725,300.97034 339.94492,271.73941 C 339.94492,271.73941 358.89089,209.48835 358.34958,158.60487 358.34958,158.60487 363.2214,131.53919 337.77966,146.15466 337.77966,146.15466 325.87076,152.65042 311.2553,147.7786 Z"
     id="path2583"
     inkscape:connector-curvature="0" />
  <path
     style="fill:#000000;stroke:#000000;stroke-width:1px;stroke-linecap:butt;stroke-linejoin:miter;stroke-opacity:1;fill-opacity:1"
     d="M 286.89619,197.57945 C 286.89619,197.57945 302.59428,218.69068 325.32945,192.16631 325.32945,192.16631 323.70552,172.13771 286.89619,197.57945 Z"
     id="path2585"
     inkscape:connector-curvature="0" />
  <path
     style="fill:#000000;stroke:#000000;stroke-width:1px;stroke-linecap:butt;stroke-linejoin:miter;stroke-opacity:1;fill-opacity:1"
     d="M 283.10699,237.63665 C 283.10699,237.63665 308.00742,262.53708 322.62288,233.84746 337.23835,205.15784 283.10699,237.63665 283.10699,237.63665 Z"
     id="path2587"
     inkscape:connector-curvature="0" />
  <path
     style="fill:#000000;stroke:#000000;stroke-width:1px;stroke-linecap:butt;stroke-linejoin:miter;stroke-opacity:1;fill-opacity:1"
     d="M 285.81356,267.95021 C 285.81356,267.95021 297.72246,292.85064 326.95339,266.86758 356.18432,240.88453 285.81356,267.95021 285.81356,267.95021 Z"
     id="path2589"
     inkscape:connector-curvature="0" />
  <path
     style="fill:#000000;stroke:#000000;stroke-width:1px;stroke-linecap:butt;stroke-linejoin:miter;stroke-opacity:1;fill-opacity:1"
     d="M 255.5,303.13559 C 255.5,303.13559 388.12182,258.74788 444.95975,281.48305 444.95975,281.48305 466.07098,296.09852 443.87712,290.14407 443.87712,290.14407 369.71716,272.28072 267.95021,307.4661 Z"
     id="path2591"
     inkscape:connector-curvature="0" />
</svg>
