<?xml version="1.0" standalone="no"?>
<!DOCTYPE svg PUBLIC "-//W3C//DTD SVG 1.1//EN" "http://www.w3.org/Graphics/SVG/1.1/DTD/svg11.dtd" >
<svg xmlns="http://www.w3.org/2000/svg" xmlns:xlink="http://www.w3.org/1999/xlink" version="1.1" viewBox="0 0 256 256">
  <g transform="matrix(1 0 0 -1 0 204)">
   <path fill="currentColor"
d="M153 151q10 -1 21 -14q1 -2 3 -5q3 -4 6 -6q0 -8 -4 -9q-7 0 -11 -6q-5 -10 -16 -22q-14 -14 -26 -9q-1 -2 -1 -6v-6q24 3 39 5l24 3q0 1 4 3q2 0 3 1q8 3 11 0q0 -1 2 -2q2 -2 6 -3q5 -4 14 -10q3 -2 4 -2q5 -4 3 -5q-3 -4 -10 0q-4 1 -9 5q-5 3 -8 5q-7 5 -22 4
q-12 -1 -27 -3q-16 -2 -34 -5q-1 -11 0 -24q0 -10 2 -29q-2 -20 13 -31q3 -1 0 -4q-2 -6 -8 0q-11 11 -19 21q-2 3 2 4q3 4 6 4q0 14 -1 33q-1 16 0 25q-22 -5 -63 -15q-8 -2 -11 -3q-8 -3 -11 -2q-8 3 -11 7q-1 1 1 2q9 -4 57 8q21 5 35 7q2 0 3 1v14q-4 3 -3 3q-1 1 3 1v2
q-8 -3 -16 -5l-12 -3q-5 -1 -4 6q3 3 -3 6q-7 6 -1 12q-6 10 -8 28q1 2 3 0q2 -3 3 -10q0 -1 1 -1q1 -9 7 -17q5 -7 7 -15q0 -1 1 -1q8 1 22 6q0 9 -1 18q-7 -2 -20 -7q-7 -4 -10 3q-2 2 2 1q2 -2 11 2q1 0 5 2q5 2 11 5q-2 10 -4 14q-2 2 1 1q13 -5 12 -8q-1 -2 -1 -3l1 -1
q10 2 17 2q0 -5 -3 -6t-7 -2q-5 -1 -7 -1q-2 -8 -1 -19l4 2q2 4 5 4q18 0 17 -2q11 14 15 30q1 14 -15 18q-20 -1 -39 -7q-8 -4 -25 -5h-2q0 2 2 3q37 13 65 13zM148 95q-12 -1 -22 -5v-4q9 -4 22 9zM177 203q2 3 8 -1q1 -2 5 -5q3 -3 5 -4q3 -6 -2 -6q-11 0 -24 -13
q2 0 6 -1h5q4 -4 -1 -6q-16 0 -45 -9l-3 -1q-1 1 0 3q1 4 7 5q-3 2 -6 11q-14 -10 -38 -21q-2 -1 -3 -2q-7 -3 -10 -6q-7 -6 -9 1q-4 6 -8 15q-2 8 -8 21q-2 3 2 1q2 -4 6 -9l3 -3q1 -2 5 1q9 8 22 13q4 1 5 3q2 3 6 1q3 -2 8 -5q3 -4 0 -5q-9 1 -19 -19q9 3 27 12q6 4 10 6
q-4 7 -3 12q1 3 4 0q2 -5 6 -1q18 7 32 10q3 0 6 1zM175 197q-17 -2 -34 -10q-3 -2 -3 -6q1 -5 1 -3q3 -8 3 -11q17 0 35 27v2t-2 1zM98 180q0 3 -4 3q-3 -3 -12 -7h-2q-5 -2 -8 -6q-2 -9 5 -15q3 1 6 3q4 0 7 2q1 7 8 20z" />
  </g>

</svg>
