<?xml version="1.0" standalone="no"?>
<!DOCTYPE svg PUBLIC "-//W3C//DTD SVG 1.1//EN" "http://www.w3.org/Graphics/SVG/1.1/DTD/svg11.dtd" >
<svg xmlns="http://www.w3.org/2000/svg" xmlns:xlink="http://www.w3.org/1999/xlink" version="1.1" viewBox="0 0 256 256">
  <g transform="matrix(1 0 0 -1 0 204)">
   <path fill="currentColor"
d="M194 170q-16 1 -31 -3q-4 -1 -11 -3q-11 -2 -14 -2q-1 0 -2 -1t-1 0q4 -3 9 -6q1 -2 1 -3t-2 -1q-5 -1 -7 -5q-2 -5 -8 -21q17 4 31 11q4 1 6 3q1 2 5 1q11 -7 18 -9q2 -2 2 -3q0 -2 -3 -2q-4 -1 -8 -8q-1 -2 -1 -3q-5 -8 -10 -32q-9 -40 -19 -51q22 3 44 3q8 9 16 3
q7 -4 27 -16q4 -6 -2 -8q-7 -1 -16 8q-16 11 -33 10q-34 -1 -87 -15q-11 -4 -19 4q-4 2 1 2q8 -2 25 2q1 0 4 1q10 2 24 4q3 3 12 8q19 27 24 87q1 8 -6 7q-8 -2 -36 -12q-11 -33 -16 -46q-2 -3 0 -3l5 5q4 3 1 0q-7 -14 -12 -19q-10 -4 -9 2q-2 9 4 11q5 1 8 7q12 36 21 72
q2 7 2 11q-13 -3 -20 1l-3 3q-4 3 1 2q9 -3 27 0q12 2 26 8h1q7 1 9 6q2 4 8 2q5 -3 17 -6q2 -5 -3 -6zM70 26q2 -14 17 -34q4 -6 -3 -9q-6 -1 -6 1l-2 2q-2 5 -3 8q-6 11 -13 22q-5 4 -1 7q5 6 7 6q-1 1 -1 5q-4 64 -2 96h-5q-2 0 -2 1q1 1 3 2h1q1 1 3 1q-1 10 1 33
q1 12 2 19v5q0 8 -1 13q-1 1 1 0q1 -1 3 -2q3 -1 6 -3q2 -2 2 -4q-4 -11 -6 -23q-2 -13 -2 -37q16 1 26 -3q3 0 0 -4q-3 -5 -8 -3q-7 1 -18 4q-2 -33 -2 -56t3 -47zM36 119q0 1 -1 3q0 3 3 0q10 -17 5 -37q-2 -3 -5 -2q-7 0 -6 9q0 7 2 8q3 2 2 19zM125 83q11 -3 19 -9l2 -2
t3 -1q4 -4 2 -4l-1 -1q-1 -3 -2 -1q-2 0 -4 1q-5 0 -8 5q-6 5 -12 8q-1 1 -1 2q-3 1 2 2zM130 110q20 -7 23 -13q1 -2 0 -3t-3 -1q-5 -1 -9 1q-3 0 -3 1l1 2q3 3 -12 10q-2 2 3 3z" />
  </g>

</svg>
