<?xml version="1.0" standalone="no"?>
<!DOCTYPE svg PUBLIC "-//W3C//DTD SVG 1.1//EN" "http://www.w3.org/Graphics/SVG/1.1/DTD/svg11.dtd" >
<svg xmlns="http://www.w3.org/2000/svg" xmlns:xlink="http://www.w3.org/1999/xlink" version="1.1" viewBox="0 0 256 256">
  <g transform="matrix(1 0 0 -1 0 204)">
   <path fill="currentColor"
d="M153 195v-1q4 0 10 -5q2 -2 1 -4q-1 -1 -4 -2q-2 -1 -5 -4q-2 -2 -4 -3q-9 -9 -15 -16q19 4 46 9q3 1 6 1q4 0 8 -3q3 -4 9 -6q4 -2 2 -3q1 -4 -4 -4q-2 -1 -5 -8l-2 -4q-9 -23 -21 -34q-7 -8 -21 3q-4 -1 -11 -3q-5 -2 -12 -3q-5 -2 -4 2q-1 3 2 5l4 4q-2 4 -7 8
q-4 3 -2 8q0 2 -1 4q-4 7 -9 8q2 -2 -5 -3q-9 -3 -16 -14q-16 -19 -22 -47q-2 -5 2 -2q9 6 17 15q1 2 3 2q2 -1 9 -3q1 -1 0 -2q-1 -3 -3 -2q-2 0 -3 -3q-7 -9 -14 -16q-3 -1 0 1q10 15 10 18t-1 2q-2 -2 -6 -7l-9 -9l-3 -3q-1 0 -1 -1q0 -3 -3 -3q-1 -1 -1 1q-2 2 -1 7
q2 15 15 44q1 4 -2 1q-10 -6 -18 -12q-6 -5 -10 -9q-2 -2 -3 -1v1q-4 2 -4 10l-1 1q0 1 3 2q2 0 4 5q10 21 22 52q3 6 5 13q2 5 0 10q-2 3 1 2q6 -7 9 -12q2 -3 -1 -5q-9 -7 -32 -61q-2 -5 -1 -6q0 -1 4 1q15 9 32 24q1 1 3 4q5 6 10 10q4 5 10 -2q0 1 3 1h1q8 7 19 20
q7 7 10 12q7 9 5 14q0 1 2 1zM180 164q-2 -1 -6 -2q-10 -1 -15 -2q-2 -1 -4 -1q-4 -2 -9 -1q-3 0 -13 -1q-5 -5 -13 -10q7 -5 11 -14q18 3 23 8q2 2 4 3h3q6 2 9 2q3 -1 3 -2q-1 -2 -2 -1q-2 -2 -6 -4q-3 -2 -4 -2q-5 -2 -7 -4l-4 -2l1 2q1 1 -4 0q-8 -2 -15 -2
q2 -10 10 -18q12 3 25 10q2 2 9 2h6q10 16 9 33q0 6 -11 6zM179 120l-9 -3q-2 -1 -3 -1q-4 -2 -9 -3q8 -8 21 7zM134 114q-3 -3 -2 -4q0 -1 4 1q-1 1 -2 3zM153 103q4 -2 13 -6v-1q0 -2 -1 -3q-2 -2 -1 -4q20 3 36 2q11 -3 16 -12q1 -5 3 -7q2 -1 -2 -4q-2 -2 -5 0
q-2 1 -10 0q-22 -4 -39 1q0 -12 -1 -31v-38q-1 -11 8 -19q6 -6 8 -9q1 -2 -1 -4t-4 -1q-8 5 -12 12q-3 3 -5 6l-5 5t-2 3l1 2q-2 5 8 3q2 42 -2 85l-14 -7q-3 -3 -8 0q-3 -1 0 2q3 1 15 6q4 1 7 3q-2 4 -2 7q-1 3 -2 7q-1 2 1 2zM204 76q5 2 4 5q-1 4 -6 6q-18 2 -39 -3v-13
q19 -4 41 5zM128 74q0 -3 2 -6v-2q2 -2 2 -4v-2q1 -3 3 -4q3 -4 -1 -6q-1 -2 -2 -2t-2 3q-5 4 -7 8q-1 0 -1 1q1 0 1 1l1 2q0 2 1 3q-1 1 0 4t1 5q1 1 2 -1zM100 55q-1 2 1 1t3 -2q5 -5 5 -1q1 1 2 -1q1 -4 5 -8q3 -2 0 -7q-2 -3 -3 -1q-7 4 -10 14q-2 3 -3 5zM71 36
q-2 2 2 2q6 -2 9 -10q1 -3 -2 -2q-6 1 -9 10zM50 25q-3 -2 7 -9q2 -2 1 -5q-2 -4 -5 -2q-4 3 -7 8q-4 3 -3 5q0 2 5 4q3 1 2 -1z" />
  </g>

</svg>
